<svg width="1728" height="930" viewBox="0 0 1728 930" fill="none" xmlns="http://www.w3.org/2000/svg">
<mask id="mask0_771_6147" style="mask-type:alpha" maskUnits="userSpaceOnUse" x="0" y="0" width="1728" height="730">
<rect width="1728" height="730" fill="#C4C4C4"/>
</mask>
<g mask="url(#mask0_771_6147)">
<path d="M541.3 -108.846C541.3 286.449 252.163 606.809 -104.4 606.809C-460.963 606.809 -750.1 286.449 -750.1 -108.846C-750.1 -504.14 -460.963 -824.5 -104.4 -824.5C252.163 -824.5 541.3 -504.14 541.3 -108.846Z" stroke="#E3E3E3"/>
<path d="M2540.2 -134.131C2540.2 322.309 2206.34 692.238 1794.6 692.238C1382.86 692.238 1049 322.309 1049 -134.131C1049 -590.572 1382.86 -960.5 1794.6 -960.5C2206.34 -960.5 2540.2 -590.572 2540.2 -134.131Z" stroke="#E3E3E3"/>
<path d="M2315.2 -134.133C2315.2 184.591 2082.07 442.878 1794.6 442.878C1507.13 442.878 1274 184.591 1274 -134.133C1274 -452.857 1507.13 -711.145 1794.6 -711.145C2082.07 -711.145 2315.2 -452.857 2315.2 -134.133Z" stroke="#E3E3E3"/>
</g>
</svg>
