<svg width="152" height="160" viewBox="0 0 152 160" fill="none" xmlns="http://www.w3.org/2000/svg">
<path opacity="0.993" fill-rule="evenodd" clip-rule="evenodd" d="M75.8138 16.6355C94.8612 16.4636 110.969 23.1925 124.138 36.8225C127.724 40.727 130.793 45.0054 133.342 49.6573C134.025 50.9006 134.606 52.1883 135.084 53.5203C135.996 57.7737 134.732 61.2005 131.29 63.8006C127.741 65.9044 124.217 65.8629 120.717 63.676C120.037 63.1194 119.394 62.5172 118.789 61.8692C117.432 59.3568 115.981 56.9062 114.436 54.5172C105.404 42.1725 93.1931 35.7757 77.804 35.3271C64.1099 35.6145 52.77 40.8896 43.7844 51.1527C34.8547 62.137 31.6206 74.6395 34.0822 88.6605C37.45 103.496 45.9705 114.192 59.6436 120.748C70.9702 125.61 82.4138 125.9 93.9742 121.62C105.132 117.018 113.321 109.272 118.54 98.3801C121.194 95.1321 124.573 93.9898 128.678 94.9533C133.701 96.8527 135.877 100.487 135.208 105.857C135.076 106.545 134.869 107.21 134.586 107.85C126.628 123.645 114.294 134.424 97.5814 140.187C81.6635 145.122 66.1152 144.166 50.9366 137.321C37.5856 130.8 27.5725 120.893 20.8973 107.601C13.4452 91.4944 12.6159 75.0457 18.4096 58.2555C25.5585 39.7955 38.3911 27.1061 56.9071 20.1869C63.0545 18.0787 69.3568 16.8949 75.8138 16.6355Z" fill="#8E1C6A"/>
<path opacity="0.998" fill-rule="evenodd" clip-rule="evenodd" d="M77.928 57.0094C77.928 72.3365 77.928 87.6636 77.928 102.991C76.8645 103.017 75.8279 102.934 74.8184 102.741C74.8184 87.539 74.8184 72.3365 74.8184 57.134C75.8514 57.0303 76.8879 56.9888 77.928 57.0094Z" fill="#BE2977"/>
<path opacity="0.999" fill-rule="evenodd" clip-rule="evenodd" d="M77.9277 57.0093C78.2179 57.0093 78.5082 57.0093 78.7984 57.0093C78.7984 72.3364 78.7984 87.6635 78.7984 102.991C78.5082 102.991 78.2179 102.991 77.9277 102.991C77.9277 87.6635 77.9277 72.3364 77.9277 57.0093Z" fill="#BA2777"/>
<path opacity="0.998" fill-rule="evenodd" clip-rule="evenodd" d="M78.7988 57.0093C79.5065 57.0133 80.2112 57.0549 80.9134 57.1339C80.9134 72.3364 80.9134 87.5389 80.9134 102.741C80.2188 102.865 79.5139 102.948 78.7988 102.991C78.7988 87.6635 78.7988 72.3364 78.7988 57.0093Z" fill="#B72675"/>
<path opacity="0.998" fill-rule="evenodd" clip-rule="evenodd" d="M74.8183 57.134C74.8183 72.3365 74.8183 87.539 74.8183 102.741C74.1484 102.707 73.485 102.624 72.8281 102.492C72.8281 87.4975 72.8281 72.5026 72.8281 57.5078C73.4858 57.3564 74.1491 57.2318 74.8183 57.134Z" fill="#C32A79"/>
<path opacity="0.998" fill-rule="evenodd" clip-rule="evenodd" d="M80.9131 57.134C81.0789 57.1755 81.2448 57.2171 81.4106 57.2586C81.4106 72.4196 81.4106 87.5805 81.4106 102.741C81.2448 102.741 81.0789 102.741 80.9131 102.741C80.9131 87.539 80.9131 72.3365 80.9131 57.134Z" fill="#B42674"/>
<path opacity="0.997" fill-rule="evenodd" clip-rule="evenodd" d="M81.4111 57.2585C82.4918 57.3832 83.5284 57.6324 84.5208 58.0062C84.5208 72.6688 84.5208 87.3312 84.5208 101.994C83.5004 102.301 82.4639 102.55 81.4111 102.741C81.4111 87.5804 81.4111 72.4195 81.4111 57.2585Z" fill="#B12474"/>
<path opacity="0.997" fill-rule="evenodd" clip-rule="evenodd" d="M72.8285 57.5078C72.8285 72.5026 72.8285 87.4975 72.8285 102.492C72.4389 102.385 72.0657 102.26 71.709 102.118C71.709 87.3312 71.709 72.5442 71.709 57.757C72.0773 57.6545 72.4505 57.5714 72.8285 57.5078Z" fill="#C62C7A"/>
<path opacity="0.997" fill-rule="evenodd" clip-rule="evenodd" d="M71.7084 57.757C71.7084 72.5442 71.7084 87.3312 71.7084 102.118C70.4756 101.873 69.3147 101.458 68.2256 100.872C68.2256 86.9159 68.2256 72.9595 68.2256 59.0031C69.3582 58.5142 70.5191 58.0987 71.7084 57.757Z" fill="#CA2D7B"/>
<path opacity="0.997" fill-rule="evenodd" clip-rule="evenodd" d="M84.5205 58.0062C85.5964 58.2754 86.6331 58.6492 87.6302 59.1277C87.6302 73.001 87.6302 86.8744 87.6302 100.748C86.644 101.261 85.6075 101.677 84.5205 101.994C84.5205 87.3312 84.5205 72.6688 84.5205 58.0062Z" fill="#AB2272"/>
<path opacity="0.996" fill-rule="evenodd" clip-rule="evenodd" d="M68.2256 59.0031C68.2256 72.9595 68.2256 86.9159 68.2256 100.872C67.0104 100.398 65.8909 99.7751 64.8672 99.0031C64.8672 86.3343 64.8672 73.6657 64.8672 60.9969C65.9206 60.24 67.0401 59.5753 68.2256 59.0031Z" fill="#D12F7D"/>
<path opacity="0.997" fill-rule="evenodd" clip-rule="evenodd" d="M87.6299 59.1277C88.2553 59.3989 88.8357 59.7312 89.3713 60.1246C89.3713 73.3749 89.3713 86.6252 89.3713 99.8754C88.8261 100.232 88.2456 100.522 87.6299 100.748C87.6299 86.8744 87.6299 73.001 87.6299 59.1277Z" fill="#A62071"/>
<path opacity="0.996" fill-rule="evenodd" clip-rule="evenodd" d="M89.3711 60.1246C89.6178 60.2456 89.8665 60.3702 90.1174 60.4985C90.1174 73.458 90.1174 86.4175 90.1174 99.377C89.9053 99.5878 89.6566 99.7539 89.3711 99.8754C89.3711 86.6252 89.3711 73.3749 89.3711 60.1246Z" fill="#A42070"/>
<path opacity="0.995" fill-rule="evenodd" clip-rule="evenodd" d="M90.1182 60.4984C90.3669 60.6645 90.6157 60.8307 90.8645 60.9969C90.8645 73.624 90.8645 86.2513 90.8645 98.8785C90.6596 99.106 90.4108 99.2722 90.1182 99.3769C90.1182 86.4174 90.1182 73.4579 90.1182 60.4984Z" fill="#A31F70"/>
<path opacity="0.996" fill-rule="evenodd" clip-rule="evenodd" d="M64.867 60.9969C64.867 73.6657 64.867 86.3343 64.867 99.0031C64.6321 98.8656 64.4249 98.6994 64.2451 98.5047C64.2451 86.1267 64.2451 73.7487 64.2451 61.3707C64.422 61.1931 64.6293 61.0685 64.867 60.9969Z" fill="#D5317E"/>
<path opacity="0.995" fill-rule="evenodd" clip-rule="evenodd" d="M90.8643 60.9969C91.9102 61.7696 92.9053 62.6003 93.8495 63.4891C93.8495 74.4548 93.8495 85.4206 93.8495 96.3863C92.9665 97.3541 91.9714 98.1849 90.8643 98.8785C90.8643 86.2513 90.8643 73.6241 90.8643 60.9969Z" fill="#9F1D6E"/>
<path opacity="0.995" fill-rule="evenodd" clip-rule="evenodd" d="M64.2452 61.3707C64.2452 73.7487 64.2452 86.1267 64.2452 98.5047C63.7331 98.1847 63.2355 97.8315 62.7525 97.4455C62.4367 97.1502 62.1465 96.8386 61.8818 96.5109C61.8818 85.4621 61.8818 74.4133 61.8818 63.3645C62.5954 62.6123 63.3833 61.9477 64.2452 61.3707Z" fill="#D8327F"/>
<path opacity="0.993" fill-rule="evenodd" clip-rule="evenodd" d="M61.8821 63.3645C61.8821 74.4133 61.8821 85.4621 61.8821 96.5109C60.6589 95.4111 59.6224 94.165 58.7725 92.7726C58.7725 84.216 58.7725 75.6595 58.7725 67.1028C59.6325 65.7137 60.669 64.4676 61.8821 63.3645Z" fill="#DD3480"/>
<path opacity="0.993" fill-rule="evenodd" clip-rule="evenodd" d="M93.8496 63.4891C95.2884 64.8466 96.4908 66.3834 97.4568 68.0997C97.4568 76.0332 97.4568 83.9667 97.4568 91.9003C96.4918 93.5828 95.2895 95.0781 93.8496 96.3863C93.8496 85.4205 93.8496 74.4548 93.8496 63.4891Z" fill="#991B6C"/>
<path opacity="0.985" fill-rule="evenodd" clip-rule="evenodd" d="M58.7724 67.1028C58.7724 75.6594 58.7724 84.2159 58.7724 92.7726C57.3503 90.8714 56.3552 88.753 55.7871 86.4174C55.7871 82.1392 55.7871 77.8608 55.7871 73.5825C56.3828 71.2268 57.3779 69.0668 58.7724 67.1028Z" fill="#E33682"/>
<path opacity="0.983" fill-rule="evenodd" clip-rule="evenodd" d="M97.457 68.0997C98.6229 69.8982 99.4522 71.8504 99.9448 73.9564C99.9448 77.9439 99.9448 81.9314 99.9448 85.919C99.4543 88.0634 98.625 90.0572 97.457 91.9003C97.457 83.9667 97.457 76.0333 97.457 68.0997Z" fill="#93196B"/>
<path opacity="0.957" fill-rule="evenodd" clip-rule="evenodd" d="M55.787 73.5826C55.787 77.8608 55.787 82.1392 55.787 86.4175C55.4458 85.5052 55.2384 84.5499 55.165 83.5514C55.165 81.1423 55.165 78.7331 55.165 76.324C55.2479 75.3673 55.4552 74.4535 55.787 73.5826Z" fill="#E73784"/>
<path opacity="0.958" fill-rule="evenodd" clip-rule="evenodd" d="M99.9443 73.9564C100.102 74.2561 100.185 74.5884 100.193 74.9533C100.193 78.2763 100.193 81.5992 100.193 84.9222C100.219 85.2954 100.136 85.6277 99.9443 85.919C99.9443 81.9315 99.9443 77.944 99.9443 73.9564Z" fill="#8F1969"/>
<path opacity="0.927" fill-rule="evenodd" clip-rule="evenodd" d="M100.193 74.9532C100.436 75.7079 100.561 76.497 100.567 77.3208C100.567 79.1069 100.567 80.8931 100.567 82.6791C100.547 83.46 100.423 84.2077 100.193 84.9221C100.193 81.5991 100.193 78.2762 100.193 74.9532Z" fill="#8F1869"/>
<path opacity="0.767" fill-rule="evenodd" clip-rule="evenodd" d="M55.1654 76.324C55.1654 78.7331 55.1654 81.1423 55.1654 83.5514C54.6727 81.1427 54.6727 78.7336 55.1654 76.324Z" fill="#E73883"/>
<path opacity="0.642" fill-rule="evenodd" clip-rule="evenodd" d="M100.566 77.3209C100.898 79.1069 100.898 80.8931 100.566 82.6791C100.566 80.8931 100.566 79.1069 100.566 77.3209Z" fill="#8E1869"/>
</svg>
