<svg width="406" height="259" viewBox="0 0 406 259" fill="none" xmlns="http://www.w3.org/2000/svg">
<rect x="35.0815" y="1.86719" width="248.628" height="182.528" stroke="#C6C6C6" stroke-width="2" stroke-linejoin="round" stroke-dasharray="3 3"/>
<rect x="60.705" y="23.8184" width="259.182" height="195.709" fill="#F1F1F1"/>
<rect x="67.0522" y="52.3813" width="246.487" height="162.914" fill="white"/>
<rect x="87.1521" y="73.5391" width="204.172" height="118.483" rx="8" fill="#F1F1F1"/>
<rect x="296.613" y="36.5132" width="15.8683" height="4.23154" rx="2.11577" fill="#C4C4C4"/>
<circle cx="69.697" cy="38.0998" r="2.64471" fill="#C4C4C4"/>
<circle cx="77.1022" cy="38.0998" r="2.64471" fill="#C4C4C4"/>
<circle cx="84.5074" cy="38.0998" r="2.64471" fill="#C4C4C4"/>
<rect x="235.414" y="142.247" width="13.7708" height="12.8527" fill="#FF4E42"/>
<rect x="132.593" y="103.688" width="14.6888" height="12.8527" fill="url(#paint0_linear_763_2888)"/>
<rect x="254.693" y="180.805" width="15.6069" height="9.18051" fill="#FFB422"/>
<line x1="107.108" y1="89.918" x2="107.108" y2="178.969" stroke="#CFCFCF"/>
<line x1="148.42" y1="89.918" x2="148.42" y2="178.969" stroke="#CFCFCF"/>
<line x1="188.814" y1="89.918" x2="188.814" y2="178.969" stroke="#CFCFCF"/>
<line x1="230.126" y1="89.918" x2="230.126" y2="178.969" stroke="#CFCFCF"/>
<line x1="270.521" y1="89.918" x2="270.521" y2="178.969" stroke="#CFCFCF"/>
<line x1="106.608" y1="105.025" x2="270.021" y2="105.025" stroke="#CFCFCF"/>
<line x1="106.608" y1="144.501" x2="270.021" y2="144.501" stroke="#CFCFCF"/>
<line x1="127.305" y1="89.918" x2="127.305" y2="178.969" stroke="#CFCFCF"/>
<line x1="168.617" y1="89.918" x2="168.617" y2="178.969" stroke="#CFCFCF"/>
<line x1="209.011" y1="89.918" x2="209.011" y2="178.969" stroke="#CFCFCF"/>
<line x1="250.323" y1="89.918" x2="250.323" y2="178.969" stroke="#CFCFCF"/>
<line x1="106.608" y1="125.222" x2="270.021" y2="125.222" stroke="#CFCFCF"/>
<line x1="106.608" y1="164.698" x2="270.021" y2="164.698" stroke="#CFCFCF"/>
<g filter="url(#filter0_d_763_2888)">
<rect x="16" y="104.232" width="182.413" height="123.525" rx="15" fill="url(#paint1_linear_763_2888)"/>
</g>
<g filter="url(#filter1_d_763_2888)">
<rect x="260.84" y="54.1143" width="118.429" height="90.887" rx="9" fill="white"/>
</g>
<rect x="270.939" y="67.8848" width="42.2303" height="3.6722" rx="1.8361" fill="#F1F1F1"/>
<rect x="270.939" y="74.3115" width="18.361" height="3.6722" rx="1.8361" fill="#F1F1F1"/>
<rect x="349.891" y="131.23" width="18.361" height="3.6722" rx="1.8361" fill="#F1F1F1"/>
<path d="M319.595 133.067C314.516 133.067 309.536 131.662 305.205 129.008C300.874 126.355 297.361 122.555 295.056 118.029C292.75 113.503 291.74 108.428 292.139 103.365C292.537 98.3009 294.328 93.4461 297.314 89.3369L307.34 96.6217C305.698 98.8818 304.713 101.552 304.494 104.337C304.275 107.122 304.83 109.913 306.098 112.402C307.367 114.892 309.299 116.981 311.681 118.441C314.062 119.901 316.802 120.673 319.595 120.673L319.595 133.067Z" fill="#FFB422"/>
<path d="M347.306 104.665C347.421 108.37 346.788 112.06 345.444 115.514C344.099 118.969 342.072 122.116 339.482 124.768C336.892 127.42 333.794 129.522 330.372 130.948C326.951 132.374 323.276 133.094 319.57 133.066L319.663 120.673C321.702 120.688 323.723 120.292 325.605 119.508C327.486 118.723 329.191 117.567 330.615 116.109C332.039 114.65 333.155 112.919 333.894 111.019C334.633 109.12 334.982 107.09 334.918 105.052L347.306 104.665Z" fill="url(#paint2_linear_763_2888)"/>
<path d="M297.229 89.4722C300.587 84.792 305.328 81.2823 310.784 79.437C316.24 77.5916 322.138 77.5035 327.647 79.185C333.157 80.8665 338 84.2329 341.496 88.8107C344.992 93.3885 346.965 98.9472 347.137 104.705L335.013 105.067C334.916 101.845 333.812 98.7343 331.856 96.1726C329.9 93.6109 327.189 91.7271 324.107 90.7861C321.024 89.8452 317.723 89.8945 314.67 90.9272C311.616 91.9598 308.964 93.9238 307.085 96.5428L297.229 89.4722Z" fill="#FF4E42"/>
<rect x="38.0332" y="143.165" width="73.4441" height="6.42636" rx="3.21318" fill="#F1F1F1"/>
<rect x="38.0332" y="154.182" width="32.1318" height="6.42636" rx="3.21318" fill="#F1F1F1"/>
<rect x="150.035" y="145.001" width="35.804" height="6.42636" rx="3.21318" fill="#3821C6"/>
<rect x="150.035" y="156.018" width="35.804" height="6.42636" rx="3.21318" fill="#3821C6"/>
<rect x="169.237" y="175.948" width="10.4552" height="40.3273" rx="5.22761" fill="white" fill-opacity="0.24"/>
<rect x="169.237" y="195.863" width="10.4552" height="20.4126" rx="5.22761" fill="#FFB422"/>
<rect x="147.829" y="175.948" width="10.4552" height="40.3273" rx="5.22761" fill="white" fill-opacity="0.24"/>
<rect x="147.829" y="204.327" width="10.4552" height="11.9488" rx="5.22761" fill="#FFB422"/>
<rect x="126.421" y="175.948" width="10.4552" height="40.3273" rx="5.22761" fill="white" fill-opacity="0.24"/>
<rect x="126.421" y="187.897" width="10.4552" height="28.3785" rx="5.22761" fill="#FFB422"/>
<rect x="105.012" y="175.948" width="10.4552" height="40.3273" rx="5.22761" fill="white" fill-opacity="0.24"/>
<rect x="105.012" y="191.382" width="10.4552" height="24.8934" rx="5.22761" fill="#FFB422"/>
<rect x="83.604" y="175.948" width="10.4552" height="40.3273" rx="5.22761" fill="white" fill-opacity="0.24"/>
<rect x="83.604" y="195.863" width="10.4552" height="20.4126" rx="5.22761" fill="#FFB422"/>
<rect x="62.1957" y="175.948" width="10.4552" height="40.3273" rx="5.22761" fill="white" fill-opacity="0.24"/>
<rect x="62.1957" y="185.905" width="10.4552" height="30.3699" rx="5.22761" fill="#FFB422"/>
<rect x="40.7874" y="175.948" width="10.4552" height="40.3273" rx="5.22761" fill="white" fill-opacity="0.24"/>
<rect x="40.7874" y="201.339" width="10.4552" height="14.936" rx="5.22761" fill="#FFB422"/>
<defs>
<filter id="filter0_d_763_2888" x="0" y="93.2324" width="224.413" height="165.524" filterUnits="userSpaceOnUse" color-interpolation-filters="sRGB">
<feFlood flood-opacity="0" result="BackgroundImageFix"/>
<feColorMatrix in="SourceAlpha" type="matrix" values="0 0 0 0 0 0 0 0 0 0 0 0 0 0 0 0 0 0 127 0" result="hardAlpha"/>
<feOffset dx="5" dy="10"/>
<feGaussianBlur stdDeviation="10.5"/>
<feComposite in2="hardAlpha" operator="out"/>
<feColorMatrix type="matrix" values="0 0 0 0 0.700272 0 0 0 0 0.700272 0 0 0 0 0.700272 0 0 0 0.25 0"/>
<feBlend mode="normal" in2="BackgroundImageFix" result="effect1_dropShadow_763_2888"/>
<feBlend mode="normal" in="SourceGraphic" in2="effect1_dropShadow_763_2888" result="shape"/>
</filter>
<filter id="filter1_d_763_2888" x="244.84" y="43.1143" width="160.429" height="132.887" filterUnits="userSpaceOnUse" color-interpolation-filters="sRGB">
<feFlood flood-opacity="0" result="BackgroundImageFix"/>
<feColorMatrix in="SourceAlpha" type="matrix" values="0 0 0 0 0 0 0 0 0 0 0 0 0 0 0 0 0 0 127 0" result="hardAlpha"/>
<feOffset dx="5" dy="10"/>
<feGaussianBlur stdDeviation="10.5"/>
<feComposite in2="hardAlpha" operator="out"/>
<feColorMatrix type="matrix" values="0 0 0 0 0.700272 0 0 0 0 0.700272 0 0 0 0 0.700272 0 0 0 0.25 0"/>
<feBlend mode="normal" in2="BackgroundImageFix" result="effect1_dropShadow_763_2888"/>
<feBlend mode="normal" in="SourceGraphic" in2="effect1_dropShadow_763_2888" result="shape"/>
</filter>
<linearGradient id="paint0_linear_763_2888" x1="147.281" y1="116.541" x2="110.192" y2="116.541" gradientUnits="userSpaceOnUse">
<stop stop-color="#9F1D6E"/>
<stop offset="0.258474" stop-color="#D5317E"/>
</linearGradient>
<linearGradient id="paint1_linear_763_2888" x1="198.413" y1="227.757" x2="-262.179" y2="227.757" gradientUnits="userSpaceOnUse">
<stop stop-color="#9F1D6E"/>
<stop offset="0.258474" stop-color="#D5317E"/>
</linearGradient>
<linearGradient id="paint2_linear_763_2888" x1="347.319" y1="133.067" x2="208.234" y2="133.067" gradientUnits="userSpaceOnUse">
<stop stop-color="#9F1D6E"/>
<stop offset="0.258474" stop-color="#D5317E"/>
</linearGradient>
</defs>
</svg>
