<svg width="923" height="509" viewBox="0 0 923 509" fill="none" xmlns="http://www.w3.org/2000/svg">
<rect y="0.0170898" width="923" height="508" rx="30" fill="url(#paint0_linear_771_6160)"/>
<path d="M103 134.017C103 117.449 116.431 104.017 133 104.017H790C806.569 104.017 820 117.449 820 134.017V508.017H103V134.017Z" fill="#F4F4F4"/>
<rect x="676" y="230.017" width="117" height="116" fill="white"/>
<rect x="676" y="356.017" width="117" height="116" fill="white"/>
<rect x="357" y="362.017" width="308" height="116" fill="white"/>
<rect x="375" y="380.017" width="32" height="29" rx="3" fill="#E6E6E6"/>
<rect x="418" y="380.017" width="167" height="11" rx="3" fill="#E6E6E6"/>
<rect x="375" y="428.017" width="257" height="11" rx="3" fill="#E6E6E6"/>
<rect x="418" y="398.017" width="67" height="11" rx="3" fill="#E6E6E6"/>
<rect x="375" y="446.017" width="103" height="11" rx="3" fill="#E6E6E6"/>
<rect x="357" y="230.017" width="308" height="116" fill="white"/>
<rect x="375" y="248.017" width="32" height="29" rx="3" fill="#E6E6E6"/>
<rect x="418" y="248.017" width="167" height="11" rx="3" fill="#E6E6E6"/>
<rect x="375" y="296.017" width="257" height="11" rx="3" fill="#E6E6E6"/>
<rect x="418" y="266.017" width="67" height="11" rx="3" fill="#E6E6E6"/>
<rect x="375" y="314.017" width="103" height="11" rx="3" fill="#E6E6E6"/>
<rect x="137" y="238.017" width="22" height="21" rx="5" fill="#E0457A" fill-opacity="0.15"/>
<rect x="170" y="238.017" width="150" height="10" rx="5" fill="#A4A4A4"/>
<rect x="170" y="274.017" width="84" height="10" rx="5" fill="#A4A4A4"/>
<rect x="170" y="305.017" width="115" height="10" rx="5" fill="#A4A4A4"/>
<rect x="170" y="346.017" width="84" height="10" rx="5" fill="#A4A4A4"/>
<rect x="170" y="382.017" width="150" height="10" rx="5" fill="#A4A4A4"/>
<rect x="170" y="419.017" width="101" height="10" rx="5" fill="#A4A4A4"/>
<rect x="137" y="269.017" width="22" height="21" rx="5" fill="#E0457A" fill-opacity="0.15"/>
<rect x="137" y="300.017" width="22" height="21" rx="5" fill="#E0457A" fill-opacity="0.15"/>
<rect x="137" y="341.017" width="22" height="21" rx="5" fill="#E0457A" fill-opacity="0.15"/>
<rect x="137" y="377.017" width="22" height="21" rx="5" fill="#E0457A" fill-opacity="0.15"/>
<rect x="137" y="414.017" width="22" height="21" rx="5" fill="#E0457A" fill-opacity="0.15"/>
<path d="M103 134.017C103 117.449 116.431 104.017 133 104.017H790C806.569 104.017 820 117.449 820 134.017V200.017H103V134.017Z" fill="#E0457A" fill-opacity="0.15"/>
<rect x="765" y="139.017" width="26" height="26" rx="2" fill="#E0457A"/>
<rect x="726" y="139.017" width="26" height="26" rx="2" fill="url(#paint1_linear_771_6160)"/>
<rect x="494" y="140.017" width="219" height="26" rx="13" fill="url(#paint2_linear_771_6160)"/>
<rect x="133" y="126.017" width="54" height="54" rx="27" fill="url(#paint3_linear_771_6160)"/>
<path d="M168.038 165.017C169.315 165.017 170.246 163.844 169.942 162.631C168.848 158.262 164.811 155.017 160 155.017C155.189 155.017 151.15 158.262 150.058 162.633C149.754 163.846 150.685 165.017 151.962 165.017H168.038Z" fill="#E0457A" fill-opacity="0.15"/>
<path d="M160 152.017C163.314 152.017 166 149.331 166 146.017C166 142.703 163.314 140.017 160 140.017C156.686 140.017 154 142.703 154 146.017C154 149.331 156.686 152.017 160 152.017Z" fill="#E0457A" fill-opacity="0.15"/>
<path d="M461 244.705C475.388 244.705 489.187 250.374 499.361 260.466C509.534 270.558 515.25 284.245 515.25 298.517C515.25 312.789 509.534 326.476 499.361 336.568C489.187 346.66 475.388 352.33 461 352.33C446.612 352.33 432.813 346.66 422.639 336.568C412.466 326.476 406.75 312.789 406.75 298.517C406.75 284.245 412.466 270.558 422.639 260.466C432.813 250.374 446.612 244.705 461 244.705ZM461 344.642C473.333 344.642 485.16 339.783 493.88 331.132C502.601 322.482 507.5 310.75 507.5 298.517C507.5 286.284 502.601 274.552 493.88 265.902C485.16 257.252 473.333 252.392 461 252.392C448.667 252.392 436.84 257.252 428.12 265.902C419.399 274.552 414.5 286.284 414.5 298.517C414.5 310.75 419.399 322.482 428.12 331.132C436.84 339.783 448.667 344.642 461 344.642ZM455.188 314.899L479.964 298.517L455.188 282.135V314.899ZM456.474 273.74L486.684 293.72C487.48 294.247 488.132 294.96 488.584 295.797C489.035 296.634 489.271 297.568 489.271 298.517C489.271 299.466 489.035 300.401 488.584 301.237C488.132 302.074 487.48 302.788 486.684 303.314L456.474 323.294C455.599 323.873 454.581 324.205 453.531 324.255C452.48 324.306 451.435 324.072 450.507 323.58C449.58 323.088 448.804 322.355 448.264 321.46C447.723 320.564 447.438 319.54 447.438 318.497V278.53C447.438 277.486 447.723 276.462 448.264 275.567C448.804 274.672 449.58 273.939 450.507 273.447C451.435 272.954 452.48 272.721 453.531 272.771C454.581 272.821 455.599 273.154 456.474 273.733V273.74Z" fill="#E0457A" fill-opacity="0.15"/>
<defs>
<linearGradient id="paint0_linear_771_6160" x1="923" y1="508.017" x2="-1407.58" y2="508.017" gradientUnits="userSpaceOnUse">
<stop stop-color="#9F1D6E"/>
<stop offset="0.258474" stop-color="#D5317E"/>
</linearGradient>
<linearGradient id="paint1_linear_771_6160" x1="752" y1="165.017" x2="686.35" y2="165.017" gradientUnits="userSpaceOnUse">
<stop stop-color="#9F1D6E"/>
<stop offset="0.258474" stop-color="#D5317E"/>
</linearGradient>
<linearGradient id="paint2_linear_771_6160" x1="713" y1="166.017" x2="160.025" y2="166.017" gradientUnits="userSpaceOnUse">
<stop stop-color="#9F1D6E"/>
<stop offset="0.258474" stop-color="#D5317E"/>
</linearGradient>
<linearGradient id="paint3_linear_771_6160" x1="187" y1="180.017" x2="50.65" y2="180.017" gradientUnits="userSpaceOnUse">
<stop stop-color="#9F1D6E"/>
<stop offset="0.258474" stop-color="#D5317E"/>
</linearGradient>
</defs>
</svg>
