<svg width="417" height="278" viewBox="0 0 417 278" fill="none" xmlns="http://www.w3.org/2000/svg">
<rect x="39.6421" y="51.1387" width="257.501" height="174.285" stroke="#C6C6C6" stroke-width="2" stroke-linejoin="round" stroke-dasharray="3 3"/>
<rect x="78.0598" y="0.866699" width="268.26" height="202.564" fill="#F1F1F1"/>
<rect x="84.6294" y="30.4297" width="255.121" height="168.621" fill="white"/>
<rect x="105.433" y="52.3291" width="211.323" height="122.633" rx="8" fill="#F1F1F1"/>
<rect x="322.231" y="14.0059" width="16.4241" height="4.37976" rx="2.18988" fill="#C4C4C4"/>
<rect x="201.788" y="131.165" width="47.0824" height="4.37976" rx="2.18988" fill="white"/>
<rect x="117.478" y="73.1328" width="47.0824" height="4.37976" rx="2.18988" fill="white"/>
<rect x="258.725" y="131.165" width="47.0824" height="4.37976" rx="2.18988" fill="white"/>
<rect x="201.788" y="138.829" width="47.0824" height="4.37976" rx="2.18988" fill="white"/>
<rect x="117.478" y="80.7969" width="47.0824" height="4.37976" rx="2.18988" fill="white"/>
<rect x="258.725" y="138.829" width="47.0824" height="4.37976" rx="2.18988" fill="white"/>
<rect x="201.788" y="146.493" width="26.2786" height="4.37976" rx="2.18988" fill="white"/>
<rect x="117.478" y="88.4619" width="26.2786" height="4.37976" rx="2.18988" fill="white"/>
<rect x="258.725" y="146.493" width="26.2786" height="4.37976" rx="2.18988" fill="white"/>
<circle cx="87.3667" cy="15.648" r="2.73735" fill="#C4C4C4"/>
<circle cx="95.0313" cy="15.648" r="2.73735" fill="#C4C4C4"/>
<circle cx="102.696" cy="15.648" r="2.73735" fill="#C4C4C4"/>
<g filter="url(#filter0_d_763_2774)">
<rect x="16.7432" y="111.455" width="167.526" height="134.678" rx="15" fill="white"/>
</g>
<rect x="34.2622" y="142.114" width="130.298" height="19.7089" rx="4" fill="#EEEEEE"/>
<rect x="34.2622" y="183.721" width="130.298" height="19.7089" rx="4" fill="#EEEEEE"/>
<rect x="34.2622" y="214.379" width="41.6077" height="19.7089" rx="4" fill="#E0457A"/>
<path d="M35.1582 133.724C35.0695 133.724 34.9995 133.698 34.9482 133.647C34.8969 133.591 34.8712 133.519 34.8712 133.43V129.034C34.8712 128.95 34.8969 128.882 34.9482 128.831C35.0042 128.78 35.0765 128.754 35.1652 128.754H36.8242C37.3422 128.754 37.7435 128.88 38.0282 129.132C38.3175 129.384 38.4622 129.741 38.4622 130.203C38.4622 130.665 38.3175 131.024 38.0282 131.281C37.7389 131.538 37.3375 131.666 36.8242 131.666H35.4452V133.43C35.4452 133.519 35.4195 133.591 35.3682 133.647C35.3169 133.698 35.2469 133.724 35.1582 133.724ZM36.7682 131.19C37.5195 131.19 37.8952 130.861 37.8952 130.203C37.8952 129.554 37.5195 129.23 36.7682 129.23H35.4452V131.19H36.7682ZM40.6167 130.196C41.4707 130.196 41.8977 130.644 41.8977 131.54V133.444C41.8977 133.528 41.8721 133.596 41.8207 133.647C41.7741 133.698 41.7087 133.724 41.6247 133.724C41.5407 133.724 41.4731 133.698 41.4217 133.647C41.3704 133.596 41.3447 133.528 41.3447 133.444V133.108C41.2561 133.309 41.1207 133.465 40.9387 133.577C40.7567 133.684 40.5467 133.738 40.3087 133.738C40.0894 133.738 39.8864 133.694 39.6997 133.605C39.5177 133.516 39.3731 133.393 39.2657 133.234C39.1584 133.075 39.1047 132.9 39.1047 132.709C39.1047 132.452 39.1701 132.254 39.3007 132.114C39.4314 131.969 39.6461 131.867 39.9447 131.806C40.2434 131.741 40.6587 131.708 41.1907 131.708H41.3447V131.477C41.3447 131.197 41.2864 130.992 41.1697 130.861C41.0577 130.73 40.8734 130.665 40.6167 130.665C40.2994 130.665 39.9774 130.751 39.6507 130.924C39.5247 131.003 39.4361 131.043 39.3847 131.043C39.3287 131.043 39.2821 131.022 39.2447 130.98C39.2074 130.938 39.1887 130.884 39.1887 130.819C39.1887 130.754 39.2074 130.698 39.2447 130.651C39.2867 130.6 39.3521 130.548 39.4407 130.497C39.6041 130.404 39.7884 130.331 39.9937 130.28C40.2037 130.224 40.4114 130.196 40.6167 130.196ZM40.3857 133.29C40.6657 133.29 40.8944 133.197 41.0717 133.01C41.2537 132.819 41.3447 132.574 41.3447 132.275V132.072H41.2187C40.8081 132.072 40.4954 132.091 40.2807 132.128C40.0661 132.161 39.9121 132.219 39.8187 132.303C39.7301 132.382 39.6857 132.501 39.6857 132.66C39.6857 132.842 39.7511 132.994 39.8817 133.115C40.0171 133.232 40.1851 133.29 40.3857 133.29ZM44.0836 133.738C43.869 133.738 43.6636 133.712 43.4676 133.661C43.2763 133.61 43.106 133.537 42.9566 133.444C42.8726 133.388 42.812 133.337 42.7746 133.29C42.742 133.239 42.7256 133.178 42.7256 133.108C42.7256 133.047 42.742 132.998 42.7746 132.961C42.812 132.919 42.8586 132.898 42.9146 132.898C42.9706 132.898 43.0523 132.933 43.1596 133.003C43.2996 133.087 43.4373 133.155 43.5726 133.206C43.7126 133.253 43.8853 133.276 44.0906 133.276C44.3426 133.276 44.5386 133.232 44.6786 133.143C44.8186 133.054 44.8886 132.926 44.8886 132.758C44.8886 132.655 44.863 132.574 44.8116 132.513C44.7603 132.448 44.6716 132.392 44.5456 132.345C44.4196 132.294 44.2353 132.242 43.9926 132.191C43.582 132.102 43.288 131.983 43.1106 131.834C42.9333 131.685 42.8446 131.482 42.8446 131.225C42.8446 131.024 42.9006 130.847 43.0126 130.693C43.1246 130.539 43.2786 130.418 43.4746 130.329C43.6753 130.24 43.9016 130.196 44.1536 130.196C44.3356 130.196 44.5106 130.222 44.6786 130.273C44.8513 130.32 45.003 130.387 45.1336 130.476C45.2923 130.588 45.3716 130.705 45.3716 130.826C45.3716 130.887 45.353 130.938 45.3156 130.98C45.2783 131.022 45.234 131.043 45.1826 131.043C45.1266 131.043 45.0426 131.003 44.9306 130.924C44.8 130.84 44.6763 130.775 44.5596 130.728C44.443 130.681 44.2983 130.658 44.1256 130.658C43.9063 130.658 43.729 130.707 43.5936 130.805C43.463 130.903 43.3976 131.034 43.3976 131.197C43.3976 131.3 43.421 131.384 43.4676 131.449C43.519 131.51 43.6006 131.566 43.7126 131.617C43.8293 131.664 43.995 131.71 44.2096 131.757C44.527 131.827 44.772 131.904 44.9446 131.988C45.122 132.072 45.248 132.175 45.3226 132.296C45.3973 132.417 45.4346 132.571 45.4346 132.758C45.4346 133.052 45.311 133.29 45.0636 133.472C44.8163 133.649 44.4896 133.738 44.0836 133.738ZM47.4469 133.738C47.2323 133.738 47.0269 133.712 46.8309 133.661C46.6396 133.61 46.4693 133.537 46.3199 133.444C46.2359 133.388 46.1753 133.337 46.1379 133.29C46.1053 133.239 46.0889 133.178 46.0889 133.108C46.0889 133.047 46.1053 132.998 46.1379 132.961C46.1753 132.919 46.2219 132.898 46.2779 132.898C46.3339 132.898 46.4156 132.933 46.5229 133.003C46.6629 133.087 46.8006 133.155 46.9359 133.206C47.0759 133.253 47.2486 133.276 47.4539 133.276C47.7059 133.276 47.9019 133.232 48.0419 133.143C48.1819 133.054 48.2519 132.926 48.2519 132.758C48.2519 132.655 48.2263 132.574 48.1749 132.513C48.1236 132.448 48.0349 132.392 47.9089 132.345C47.7829 132.294 47.5986 132.242 47.3559 132.191C46.9453 132.102 46.6513 131.983 46.4739 131.834C46.2966 131.685 46.2079 131.482 46.2079 131.225C46.2079 131.024 46.2639 130.847 46.3759 130.693C46.4879 130.539 46.6419 130.418 46.8379 130.329C47.0386 130.24 47.2649 130.196 47.5169 130.196C47.6989 130.196 47.8739 130.222 48.0419 130.273C48.2146 130.32 48.3663 130.387 48.4969 130.476C48.6556 130.588 48.7349 130.705 48.7349 130.826C48.7349 130.887 48.7163 130.938 48.6789 130.98C48.6416 131.022 48.5973 131.043 48.5459 131.043C48.4899 131.043 48.4059 131.003 48.2939 130.924C48.1633 130.84 48.0396 130.775 47.9229 130.728C47.8063 130.681 47.6616 130.658 47.4889 130.658C47.2696 130.658 47.0923 130.707 46.9569 130.805C46.8263 130.903 46.7609 131.034 46.7609 131.197C46.7609 131.3 46.7843 131.384 46.8309 131.449C46.8823 131.51 46.9639 131.566 47.0759 131.617C47.1926 131.664 47.3583 131.71 47.5729 131.757C47.8903 131.827 48.1353 131.904 48.3079 131.988C48.4853 132.072 48.6113 132.175 48.6859 132.296C48.7606 132.417 48.7979 132.571 48.7979 132.758C48.7979 133.052 48.6743 133.29 48.4269 133.472C48.1796 133.649 47.8529 133.738 47.4469 133.738ZM54.2627 130.392C54.3094 130.28 54.3864 130.224 54.4937 130.224C54.5637 130.224 54.6267 130.247 54.6827 130.294C54.7387 130.341 54.7667 130.399 54.7667 130.469C54.7667 130.502 54.7597 130.537 54.7457 130.574L53.5837 133.514C53.5557 133.575 53.5137 133.624 53.4577 133.661C53.4064 133.694 53.348 133.71 53.2827 133.71C53.222 133.71 53.1637 133.694 53.1077 133.661C53.0564 133.624 53.0167 133.575 52.9887 133.514L52.0227 131.057L51.0637 133.514C51.0404 133.575 51.0007 133.624 50.9447 133.661C50.8887 133.694 50.828 133.71 50.7627 133.71C50.702 133.71 50.6437 133.694 50.5877 133.661C50.5317 133.624 50.4897 133.575 50.4617 133.514L49.2997 130.581C49.2857 130.544 49.2787 130.511 49.2787 130.483C49.2787 130.408 49.309 130.345 49.3697 130.294C49.435 130.243 49.505 130.217 49.5797 130.217C49.6917 130.217 49.771 130.273 49.8177 130.385L50.7767 132.968L51.7637 130.406C51.7917 130.345 51.829 130.299 51.8757 130.266C51.927 130.233 51.9807 130.217 52.0367 130.217C52.0974 130.217 52.151 130.233 52.1977 130.266C52.249 130.299 52.2864 130.345 52.3097 130.406L53.2967 132.961L54.2627 130.392ZM56.8662 133.738C56.5442 133.738 56.2596 133.666 56.0122 133.521C55.7696 133.376 55.5806 133.171 55.4452 132.905C55.3146 132.634 55.2492 132.322 55.2492 131.967C55.2492 131.612 55.3146 131.302 55.4452 131.036C55.5806 130.765 55.7696 130.558 56.0122 130.413C56.2596 130.268 56.5442 130.196 56.8662 130.196C57.1882 130.196 57.4729 130.268 57.7202 130.413C57.9676 130.558 58.1566 130.765 58.2872 131.036C58.4226 131.302 58.4902 131.612 58.4902 131.967C58.4902 132.322 58.4226 132.634 58.2872 132.905C58.1566 133.171 57.9676 133.376 57.7202 133.521C57.4729 133.666 57.1882 133.738 56.8662 133.738ZM56.8662 133.269C57.2022 133.269 57.4589 133.159 57.6362 132.94C57.8182 132.716 57.9092 132.392 57.9092 131.967C57.9092 131.552 57.8182 131.232 57.6362 131.008C57.4542 130.779 57.1976 130.665 56.8662 130.665C56.5349 130.665 56.2782 130.779 56.0962 131.008C55.9142 131.232 55.8232 131.552 55.8232 131.967C55.8232 132.387 55.9119 132.709 56.0892 132.933C56.2712 133.157 56.5302 133.269 56.8662 133.269ZM61.0221 130.21C61.2181 130.196 61.3161 130.275 61.3161 130.448C61.3161 130.523 61.2951 130.583 61.2531 130.63C61.2111 130.672 61.1387 130.698 61.0361 130.707L60.8261 130.728C60.5134 130.756 60.2801 130.868 60.1261 131.064C59.9767 131.255 59.9021 131.482 59.9021 131.743V133.444C59.9021 133.537 59.8764 133.607 59.8251 133.654C59.7737 133.701 59.7061 133.724 59.6221 133.724C59.5381 133.724 59.4681 133.701 59.4121 133.654C59.3607 133.603 59.3351 133.533 59.3351 133.444V130.49C59.3351 130.401 59.3631 130.334 59.4191 130.287C59.4751 130.236 59.5427 130.21 59.6221 130.21C59.6967 130.21 59.7597 130.236 59.8111 130.287C59.8624 130.334 59.8881 130.399 59.8881 130.483V130.875C59.9861 130.67 60.1237 130.513 60.3011 130.406C60.4831 130.299 60.6907 130.236 60.9241 130.217L61.0221 130.21ZM64.4715 128.719C64.5601 128.719 64.6301 128.745 64.6815 128.796C64.7328 128.847 64.7585 128.913 64.7585 128.992V133.444C64.7585 133.528 64.7328 133.596 64.6815 133.647C64.6301 133.698 64.5601 133.724 64.4715 133.724C64.3828 133.724 64.3128 133.698 64.2615 133.647C64.2148 133.596 64.1915 133.528 64.1915 133.444V133.066C64.0888 133.281 63.9371 133.446 63.7365 133.563C63.5405 133.68 63.3095 133.738 63.0435 133.738C62.7448 133.738 62.4811 133.663 62.2525 133.514C62.0238 133.365 61.8465 133.157 61.7205 132.891C61.5945 132.62 61.5315 132.308 61.5315 131.953C61.5315 131.603 61.5945 131.295 61.7205 131.029C61.8465 130.763 62.0238 130.558 62.2525 130.413C62.4811 130.268 62.7448 130.196 63.0435 130.196C63.3095 130.196 63.5405 130.254 63.7365 130.371C63.9371 130.488 64.0888 130.653 64.1915 130.868V128.992C64.1915 128.908 64.2148 128.843 64.2615 128.796C64.3128 128.745 64.3828 128.719 64.4715 128.719ZM63.1555 133.269C63.4868 133.269 63.7411 133.157 63.9185 132.933C64.1005 132.704 64.1915 132.382 64.1915 131.967C64.1915 131.552 64.1005 131.232 63.9185 131.008C63.7411 130.784 63.4868 130.672 63.1555 130.672C62.8241 130.672 62.5651 130.784 62.3785 131.008C62.1965 131.232 62.1055 131.547 62.1055 131.953C62.1055 132.368 62.1965 132.693 62.3785 132.926C62.5651 133.155 62.8241 133.269 63.1555 133.269Z" fill="black"/>
<path d="M36.9642 175.353C36.4975 175.353 36.0939 175.253 35.7532 175.052C35.4125 174.847 35.1489 174.555 34.9622 174.177C34.7802 173.794 34.6892 173.344 34.6892 172.826C34.6892 172.313 34.7802 171.867 34.9622 171.489C35.1489 171.106 35.4125 170.815 35.7532 170.614C36.0939 170.409 36.4975 170.306 36.9642 170.306C37.2769 170.306 37.5709 170.357 37.8462 170.46C38.1262 170.558 38.3689 170.7 38.5742 170.887C38.6489 170.957 38.6862 171.039 38.6862 171.132C38.6862 171.197 38.6675 171.256 38.6302 171.307C38.5929 171.354 38.5485 171.377 38.4972 171.377C38.4412 171.377 38.3735 171.351 38.2942 171.3C38.0562 171.113 37.8392 170.983 37.6432 170.908C37.4519 170.833 37.2302 170.796 36.9782 170.796C36.4369 170.796 36.0192 170.973 35.7252 171.328C35.4359 171.678 35.2912 172.177 35.2912 172.826C35.2912 173.479 35.4359 173.983 35.7252 174.338C36.0192 174.688 36.4369 174.863 36.9782 174.863C37.2255 174.863 37.4472 174.826 37.6432 174.751C37.8392 174.676 38.0562 174.546 38.2942 174.359C38.3735 174.308 38.4412 174.282 38.4972 174.282C38.5485 174.282 38.5929 174.305 38.6302 174.352C38.6675 174.399 38.6862 174.457 38.6862 174.527C38.6862 174.62 38.6489 174.702 38.5742 174.772C38.3689 174.959 38.1262 175.103 37.8462 175.206C37.5709 175.304 37.2769 175.353 36.9642 175.353ZM40.8702 175.346C40.5482 175.346 40.2635 175.274 40.0162 175.129C39.7735 174.984 39.5845 174.779 39.4492 174.513C39.3185 174.242 39.2532 173.93 39.2532 173.575C39.2532 173.22 39.3185 172.91 39.4492 172.644C39.5845 172.373 39.7735 172.166 40.0162 172.021C40.2635 171.876 40.5482 171.804 40.8702 171.804C41.1922 171.804 41.4768 171.876 41.7242 172.021C41.9715 172.166 42.1605 172.373 42.2912 172.644C42.4265 172.91 42.4942 173.22 42.4942 173.575C42.4942 173.93 42.4265 174.242 42.2912 174.513C42.1605 174.779 41.9715 174.984 41.7242 175.129C41.4768 175.274 41.1922 175.346 40.8702 175.346ZM40.8702 174.877C41.2062 174.877 41.4628 174.767 41.6402 174.548C41.8222 174.324 41.9132 174 41.9132 173.575C41.9132 173.16 41.8222 172.84 41.6402 172.616C41.4582 172.387 41.2015 172.273 40.8702 172.273C40.5388 172.273 40.2822 172.387 40.1002 172.616C39.9182 172.84 39.8272 173.16 39.8272 173.575C39.8272 173.995 39.9158 174.317 40.0932 174.541C40.2752 174.765 40.5342 174.877 40.8702 174.877ZM45.054 171.804C45.8706 171.804 46.279 172.254 46.279 173.155V175.052C46.279 175.141 46.2533 175.211 46.202 175.262C46.1553 175.309 46.0876 175.332 45.999 175.332C45.9103 175.332 45.8403 175.309 45.789 175.262C45.7376 175.211 45.712 175.141 45.712 175.052V173.19C45.712 172.873 45.649 172.642 45.523 172.497C45.4016 172.352 45.2056 172.28 44.935 172.28C44.6223 172.28 44.3726 172.376 44.186 172.567C43.9993 172.758 43.906 173.017 43.906 173.344V175.052C43.906 175.141 43.8803 175.211 43.829 175.262C43.7823 175.309 43.7146 175.332 43.626 175.332C43.5373 175.332 43.4673 175.309 43.416 175.262C43.3646 175.211 43.339 175.141 43.339 175.052V172.098C43.339 172.014 43.3646 171.946 43.416 171.895C43.4673 171.844 43.5373 171.818 43.626 171.818C43.71 171.818 43.7753 171.844 43.822 171.895C43.8733 171.946 43.899 172.012 43.899 172.091V172.448C44.011 172.238 44.1673 172.079 44.368 171.972C44.5686 171.86 44.7973 171.804 45.054 171.804ZM49.9285 171.888C50.0078 171.888 50.0685 171.909 50.1105 171.951C50.1525 171.993 50.1735 172.049 50.1735 172.119V175.052C50.1735 175.141 50.1455 175.211 50.0895 175.262C50.0381 175.309 49.9728 175.332 49.8935 175.332C49.8095 175.332 49.7395 175.309 49.6835 175.262C49.6321 175.211 49.6065 175.141 49.6065 175.052V172.336H48.0735V175.052C48.0735 175.141 48.0455 175.211 47.9895 175.262C47.9381 175.309 47.8728 175.332 47.7935 175.332C47.7095 175.332 47.6395 175.309 47.5835 175.262C47.5321 175.211 47.5065 175.141 47.5065 175.052V172.336H47.0375C46.9581 172.336 46.8951 172.317 46.8485 172.28C46.8065 172.238 46.7855 172.184 46.7855 172.119C46.7855 172.049 46.8065 171.993 46.8485 171.951C46.8951 171.909 46.9581 171.888 47.0375 171.888H47.5065V171.769C47.5065 171.349 47.6115 171.02 47.8215 170.782C48.0315 170.539 48.3325 170.402 48.7245 170.369L48.8925 170.355C49.1165 170.336 49.2285 170.406 49.2285 170.565C49.2285 170.7 49.1491 170.777 48.9905 170.796L48.8225 170.81C48.5751 170.829 48.3885 170.908 48.2625 171.048C48.1365 171.183 48.0735 171.389 48.0735 171.664V171.888H49.9285ZM49.8935 170.376C50.0008 170.376 50.0895 170.409 50.1595 170.474C50.2341 170.539 50.2715 170.623 50.2715 170.726C50.2715 170.833 50.2365 170.92 50.1665 170.985C50.0965 171.05 50.0055 171.083 49.8935 171.083C49.7815 171.083 49.6905 171.05 49.6205 170.985C49.5505 170.92 49.5155 170.833 49.5155 170.726C49.5155 170.623 49.5505 170.539 49.6205 170.474C49.6905 170.409 49.7815 170.376 49.8935 170.376ZM52.9146 171.818C53.1106 171.804 53.2086 171.883 53.2086 172.056C53.2086 172.131 53.1876 172.191 53.1456 172.238C53.1036 172.28 53.0313 172.306 52.9286 172.315L52.7186 172.336C52.406 172.364 52.1726 172.476 52.0186 172.672C51.8693 172.863 51.7946 173.09 51.7946 173.351V175.052C51.7946 175.145 51.769 175.215 51.7176 175.262C51.6663 175.309 51.5986 175.332 51.5146 175.332C51.4306 175.332 51.3606 175.309 51.3046 175.262C51.2533 175.211 51.2276 175.141 51.2276 175.052V172.098C51.2276 172.009 51.2556 171.942 51.3116 171.895C51.3676 171.844 51.4353 171.818 51.5146 171.818C51.5893 171.818 51.6523 171.844 51.7036 171.895C51.755 171.942 51.7806 172.007 51.7806 172.091V172.483C51.8786 172.278 52.0163 172.121 52.1936 172.014C52.3756 171.907 52.5833 171.844 52.8166 171.825L52.9146 171.818ZM57.4894 171.804C58.2454 171.804 58.6234 172.254 58.6234 173.155V175.052C58.6234 175.141 58.5977 175.211 58.5464 175.262C58.4951 175.309 58.4274 175.332 58.3434 175.332C58.2594 175.332 58.1894 175.309 58.1334 175.262C58.0821 175.211 58.0564 175.141 58.0564 175.052V173.169C58.0564 172.856 58.0004 172.63 57.8884 172.49C57.7764 172.35 57.6014 172.28 57.3634 172.28C57.0787 172.28 56.8547 172.376 56.6914 172.567C56.5281 172.758 56.4464 173.017 56.4464 173.344V175.052C56.4464 175.141 56.4184 175.211 56.3624 175.262C56.3111 175.309 56.2434 175.332 56.1594 175.332C56.0754 175.332 56.0077 175.309 55.9564 175.262C55.9051 175.211 55.8794 175.141 55.8794 175.052V173.169C55.8794 172.856 55.8234 172.63 55.7114 172.49C55.5994 172.35 55.4221 172.28 55.1794 172.28C54.8994 172.28 54.6754 172.376 54.5074 172.567C54.3441 172.758 54.2624 173.017 54.2624 173.344V175.052C54.2624 175.141 54.2367 175.211 54.1854 175.262C54.1341 175.309 54.0664 175.332 53.9824 175.332C53.8984 175.332 53.8284 175.309 53.7724 175.262C53.7211 175.211 53.6954 175.141 53.6954 175.052V172.098C53.6954 172.014 53.7211 171.946 53.7724 171.895C53.8284 171.844 53.8984 171.818 53.9824 171.818C54.0617 171.818 54.1271 171.844 54.1784 171.895C54.2297 171.942 54.2554 172.007 54.2554 172.091V172.427C54.3581 172.226 54.5004 172.072 54.6824 171.965C54.8644 171.858 55.0744 171.804 55.3124 171.804C55.8444 171.804 56.1921 172.028 56.3554 172.476C56.4534 172.271 56.6027 172.107 56.8034 171.986C57.0041 171.865 57.2327 171.804 57.4894 171.804ZM61.832 175.332C61.7434 175.332 61.6734 175.306 61.622 175.255C61.5707 175.199 61.545 175.127 61.545 175.038V170.642C61.545 170.558 61.5707 170.49 61.622 170.439C61.678 170.388 61.7504 170.362 61.839 170.362H63.498C64.016 170.362 64.4174 170.488 64.702 170.74C64.9914 170.992 65.136 171.349 65.136 171.811C65.136 172.273 64.9914 172.632 64.702 172.889C64.4127 173.146 64.0114 173.274 63.498 173.274H62.119V175.038C62.119 175.127 62.0934 175.199 62.042 175.255C61.9907 175.306 61.9207 175.332 61.832 175.332ZM63.442 172.798C64.1934 172.798 64.569 172.469 64.569 171.811C64.569 171.162 64.1934 170.838 63.442 170.838H62.119V172.798H63.442ZM67.2906 171.804C68.1446 171.804 68.5716 172.252 68.5716 173.148V175.052C68.5716 175.136 68.5459 175.204 68.4946 175.255C68.4479 175.306 68.3826 175.332 68.2986 175.332C68.2146 175.332 68.1469 175.306 68.0956 175.255C68.0442 175.204 68.0186 175.136 68.0186 175.052V174.716C67.9299 174.917 67.7946 175.073 67.6126 175.185C67.4306 175.292 67.2206 175.346 66.9826 175.346C66.7632 175.346 66.5602 175.302 66.3736 175.213C66.1916 175.124 66.0469 175.001 65.9396 174.842C65.8322 174.683 65.7786 174.508 65.7786 174.317C65.7786 174.06 65.8439 173.862 65.9746 173.722C66.1052 173.577 66.3199 173.475 66.6186 173.414C66.9172 173.349 67.3326 173.316 67.8646 173.316H68.0186V173.085C68.0186 172.805 67.9602 172.6 67.8436 172.469C67.7316 172.338 67.5472 172.273 67.2906 172.273C66.9732 172.273 66.6512 172.359 66.3246 172.532C66.1986 172.611 66.1099 172.651 66.0586 172.651C66.0026 172.651 65.9559 172.63 65.9186 172.588C65.8812 172.546 65.8626 172.492 65.8626 172.427C65.8626 172.362 65.8812 172.306 65.9186 172.259C65.9606 172.208 66.0259 172.156 66.1146 172.105C66.2779 172.012 66.4622 171.939 66.6676 171.888C66.8776 171.832 67.0852 171.804 67.2906 171.804ZM67.0596 174.898C67.3396 174.898 67.5682 174.805 67.7456 174.618C67.9276 174.427 68.0186 174.182 68.0186 173.883V173.68H67.8926C67.4819 173.68 67.1692 173.699 66.9546 173.736C66.7399 173.769 66.5859 173.827 66.4926 173.911C66.4039 173.99 66.3596 174.109 66.3596 174.268C66.3596 174.45 66.4249 174.602 66.5556 174.723C66.6909 174.84 66.8589 174.898 67.0596 174.898ZM70.7575 175.346C70.5428 175.346 70.3375 175.32 70.1415 175.269C69.9501 175.218 69.7798 175.145 69.6305 175.052C69.5465 174.996 69.4858 174.945 69.4485 174.898C69.4158 174.847 69.3995 174.786 69.3995 174.716C69.3995 174.655 69.4158 174.606 69.4485 174.569C69.4858 174.527 69.5325 174.506 69.5885 174.506C69.6445 174.506 69.7261 174.541 69.8335 174.611C69.9735 174.695 70.1111 174.763 70.2465 174.814C70.3865 174.861 70.5591 174.884 70.7645 174.884C71.0165 174.884 71.2125 174.84 71.3525 174.751C71.4925 174.662 71.5625 174.534 71.5625 174.366C71.5625 174.263 71.5368 174.182 71.4855 174.121C71.4341 174.056 71.3455 174 71.2195 173.953C71.0935 173.902 70.9091 173.85 70.6665 173.799C70.2558 173.71 69.9618 173.591 69.7845 173.442C69.6071 173.293 69.5185 173.09 69.5185 172.833C69.5185 172.632 69.5745 172.455 69.6865 172.301C69.7985 172.147 69.9525 172.026 70.1485 171.937C70.3491 171.848 70.5755 171.804 70.8275 171.804C71.0095 171.804 71.1845 171.83 71.3525 171.881C71.5251 171.928 71.6768 171.995 71.8075 172.084C71.9661 172.196 72.0455 172.313 72.0455 172.434C72.0455 172.495 72.0268 172.546 71.9895 172.588C71.9521 172.63 71.9078 172.651 71.8565 172.651C71.8005 172.651 71.7165 172.611 71.6045 172.532C71.4738 172.448 71.3501 172.383 71.2335 172.336C71.1168 172.289 70.9721 172.266 70.7995 172.266C70.5801 172.266 70.4028 172.315 70.2675 172.413C70.1368 172.511 70.0715 172.642 70.0715 172.805C70.0715 172.908 70.0948 172.992 70.1415 173.057C70.1928 173.118 70.2745 173.174 70.3865 173.225C70.5031 173.272 70.6688 173.318 70.8835 173.365C71.2008 173.435 71.4458 173.512 71.6185 173.596C71.7958 173.68 71.9218 173.783 71.9965 173.904C72.0711 174.025 72.1085 174.179 72.1085 174.366C72.1085 174.66 71.9848 174.898 71.7375 175.08C71.4901 175.257 71.1635 175.346 70.7575 175.346ZM74.1208 175.346C73.9061 175.346 73.7008 175.32 73.5048 175.269C73.3134 175.218 73.1431 175.145 72.9938 175.052C72.9098 174.996 72.8491 174.945 72.8118 174.898C72.7791 174.847 72.7628 174.786 72.7628 174.716C72.7628 174.655 72.7791 174.606 72.8118 174.569C72.8491 174.527 72.8958 174.506 72.9518 174.506C73.0078 174.506 73.0894 174.541 73.1968 174.611C73.3368 174.695 73.4744 174.763 73.6098 174.814C73.7498 174.861 73.9224 174.884 74.1278 174.884C74.3798 174.884 74.5758 174.84 74.7158 174.751C74.8558 174.662 74.9258 174.534 74.9258 174.366C74.9258 174.263 74.9001 174.182 74.8488 174.121C74.7974 174.056 74.7088 174 74.5828 173.953C74.4568 173.902 74.2724 173.85 74.0298 173.799C73.6191 173.71 73.3251 173.591 73.1478 173.442C72.9704 173.293 72.8818 173.09 72.8818 172.833C72.8818 172.632 72.9378 172.455 73.0498 172.301C73.1618 172.147 73.3158 172.026 73.5118 171.937C73.7124 171.848 73.9388 171.804 74.1908 171.804C74.3728 171.804 74.5478 171.83 74.7158 171.881C74.8884 171.928 75.0401 171.995 75.1708 172.084C75.3294 172.196 75.4088 172.313 75.4088 172.434C75.4088 172.495 75.3901 172.546 75.3528 172.588C75.3154 172.63 75.2711 172.651 75.2198 172.651C75.1638 172.651 75.0798 172.611 74.9678 172.532C74.8371 172.448 74.7134 172.383 74.5968 172.336C74.4801 172.289 74.3354 172.266 74.1628 172.266C73.9434 172.266 73.7661 172.315 73.6308 172.413C73.5001 172.511 73.4348 172.642 73.4348 172.805C73.4348 172.908 73.4581 172.992 73.5048 173.057C73.5561 173.118 73.6378 173.174 73.7498 173.225C73.8664 173.272 74.0321 173.318 74.2468 173.365C74.5641 173.435 74.8091 173.512 74.9818 173.596C75.1591 173.68 75.2851 173.783 75.3598 173.904C75.4344 174.025 75.4718 174.179 75.4718 174.366C75.4718 174.66 75.3481 174.898 75.1008 175.08C74.8534 175.257 74.5268 175.346 74.1208 175.346ZM80.9365 172C80.9832 171.888 81.0602 171.832 81.1675 171.832C81.2375 171.832 81.3005 171.855 81.3565 171.902C81.4125 171.949 81.4405 172.007 81.4405 172.077C81.4405 172.11 81.4335 172.145 81.4195 172.182L80.2575 175.122C80.2295 175.183 80.1875 175.232 80.1315 175.269C80.0802 175.302 80.0218 175.318 79.9565 175.318C79.8958 175.318 79.8375 175.302 79.7815 175.269C79.7302 175.232 79.6905 175.183 79.6625 175.122L78.6965 172.665L77.7375 175.122C77.7142 175.183 77.6745 175.232 77.6185 175.269C77.5625 175.302 77.5018 175.318 77.4365 175.318C77.3758 175.318 77.3175 175.302 77.2615 175.269C77.2055 175.232 77.1635 175.183 77.1355 175.122L75.9735 172.189C75.9595 172.152 75.9525 172.119 75.9525 172.091C75.9525 172.016 75.9828 171.953 76.0435 171.902C76.1088 171.851 76.1788 171.825 76.2535 171.825C76.3655 171.825 76.4448 171.881 76.4915 171.993L77.4505 174.576L78.4375 172.014C78.4655 171.953 78.5028 171.907 78.5495 171.874C78.6008 171.841 78.6545 171.825 78.7105 171.825C78.7712 171.825 78.8248 171.841 78.8715 171.874C78.9228 171.907 78.9602 171.953 78.9835 172.014L79.9705 174.569L80.9365 172ZM83.5401 175.346C83.2181 175.346 82.9334 175.274 82.6861 175.129C82.4434 174.984 82.2544 174.779 82.1191 174.513C81.9884 174.242 81.9231 173.93 81.9231 173.575C81.9231 173.22 81.9884 172.91 82.1191 172.644C82.2544 172.373 82.4434 172.166 82.6861 172.021C82.9334 171.876 83.2181 171.804 83.5401 171.804C83.8621 171.804 84.1467 171.876 84.3941 172.021C84.6414 172.166 84.8304 172.373 84.9611 172.644C85.0964 172.91 85.1641 173.22 85.1641 173.575C85.1641 173.93 85.0964 174.242 84.9611 174.513C84.8304 174.779 84.6414 174.984 84.3941 175.129C84.1467 175.274 83.8621 175.346 83.5401 175.346ZM83.5401 174.877C83.8761 174.877 84.1327 174.767 84.3101 174.548C84.4921 174.324 84.5831 174 84.5831 173.575C84.5831 173.16 84.4921 172.84 84.3101 172.616C84.1281 172.387 83.8714 172.273 83.5401 172.273C83.2087 172.273 82.9521 172.387 82.7701 172.616C82.5881 172.84 82.4971 173.16 82.4971 173.575C82.4971 173.995 82.5857 174.317 82.7631 174.541C82.9451 174.765 83.2041 174.877 83.5401 174.877ZM87.6959 171.818C87.8919 171.804 87.9899 171.883 87.9899 172.056C87.9899 172.131 87.9689 172.191 87.9269 172.238C87.8849 172.28 87.8126 172.306 87.7099 172.315L87.4999 172.336C87.1872 172.364 86.9539 172.476 86.7999 172.672C86.6506 172.863 86.5759 173.09 86.5759 173.351V175.052C86.5759 175.145 86.5502 175.215 86.4989 175.262C86.4476 175.309 86.3799 175.332 86.2959 175.332C86.2119 175.332 86.1419 175.309 86.0859 175.262C86.0346 175.211 86.0089 175.141 86.0089 175.052V172.098C86.0089 172.009 86.0369 171.942 86.0929 171.895C86.1489 171.844 86.2166 171.818 86.2959 171.818C86.3706 171.818 86.4336 171.844 86.4849 171.895C86.5362 171.942 86.5619 172.007 86.5619 172.091V172.483C86.6599 172.278 86.7976 172.121 86.9749 172.014C87.1569 171.907 87.3646 171.844 87.5979 171.825L87.6959 171.818ZM91.1453 170.327C91.234 170.327 91.304 170.353 91.3553 170.404C91.4066 170.455 91.4323 170.521 91.4323 170.6V175.052C91.4323 175.136 91.4066 175.204 91.3553 175.255C91.304 175.306 91.234 175.332 91.1453 175.332C91.0566 175.332 90.9866 175.306 90.9353 175.255C90.8886 175.204 90.8653 175.136 90.8653 175.052V174.674C90.7626 174.889 90.611 175.054 90.4103 175.171C90.2143 175.288 89.9833 175.346 89.7173 175.346C89.4186 175.346 89.155 175.271 88.9263 175.122C88.6976 174.973 88.5203 174.765 88.3943 174.499C88.2683 174.228 88.2053 173.916 88.2053 173.561C88.2053 173.211 88.2683 172.903 88.3943 172.637C88.5203 172.371 88.6976 172.166 88.9263 172.021C89.155 171.876 89.4186 171.804 89.7173 171.804C89.9833 171.804 90.2143 171.862 90.4103 171.979C90.611 172.096 90.7626 172.261 90.8653 172.476V170.6C90.8653 170.516 90.8886 170.451 90.9353 170.404C90.9866 170.353 91.0566 170.327 91.1453 170.327ZM89.8293 174.877C90.1606 174.877 90.415 174.765 90.5923 174.541C90.7743 174.312 90.8653 173.99 90.8653 173.575C90.8653 173.16 90.7743 172.84 90.5923 172.616C90.415 172.392 90.1606 172.28 89.8293 172.28C89.498 172.28 89.239 172.392 89.0523 172.616C88.8703 172.84 88.7793 173.155 88.7793 173.561C88.7793 173.976 88.8703 174.301 89.0523 174.534C89.239 174.763 89.498 174.877 89.8293 174.877Z" fill="black"/>
<path d="M48.0923 225.854C47.9763 225.854 47.8863 225.822 47.8223 225.758C47.7583 225.694 47.7263 225.606 47.7263 225.494V221.978C47.7263 221.862 47.7603 221.77 47.8283 221.702C47.9003 221.63 47.9943 221.594 48.1103 221.594C48.2303 221.594 48.3243 221.63 48.3923 221.702C48.4643 221.77 48.5003 221.862 48.5003 221.978V225.218H50.1863C50.4263 225.218 50.5463 225.324 50.5463 225.536C50.5463 225.748 50.4263 225.854 50.1863 225.854H48.0923ZM52.3088 225.902C52.0088 225.902 51.7448 225.84 51.5168 225.716C51.2928 225.592 51.1188 225.414 50.9948 225.182C50.8708 224.95 50.8088 224.68 50.8088 224.372C50.8088 224.064 50.8708 223.796 50.9948 223.568C51.1188 223.336 51.2928 223.158 51.5168 223.034C51.7448 222.91 52.0088 222.848 52.3088 222.848C52.6088 222.848 52.8708 222.91 53.0948 223.034C53.3228 223.158 53.4968 223.336 53.6168 223.568C53.7408 223.796 53.8028 224.064 53.8028 224.372C53.8028 224.68 53.7408 224.95 53.6168 225.182C53.4968 225.414 53.3228 225.592 53.0948 225.716C52.8708 225.84 52.6088 225.902 52.3088 225.902ZM52.3028 225.32C52.5468 225.32 52.7328 225.24 52.8608 225.08C52.9888 224.92 53.0528 224.684 53.0528 224.372C53.0528 224.064 52.9888 223.83 52.8608 223.67C52.7328 223.506 52.5488 223.424 52.3088 223.424C52.0688 223.424 51.8828 223.506 51.7508 223.67C51.6228 223.83 51.5588 224.064 51.5588 224.372C51.5588 224.684 51.6228 224.92 51.7508 225.08C51.8788 225.24 52.0628 225.32 52.3028 225.32ZM56.906 222.86C57.018 222.86 57.108 222.892 57.176 222.956C57.244 223.02 57.278 223.106 57.278 223.214V225.584C57.278 226.044 57.15 226.392 56.894 226.628C56.638 226.864 56.26 226.982 55.76 226.982C55.324 226.982 54.96 226.9 54.668 226.736C54.52 226.648 54.446 226.542 54.446 226.418C54.446 226.33 54.466 226.26 54.506 226.208C54.55 226.156 54.606 226.13 54.674 226.13C54.71 226.13 54.754 226.138 54.806 226.154C54.858 226.174 54.912 226.196 54.968 226.22C55.112 226.28 55.24 226.326 55.352 226.358C55.468 226.39 55.6 226.406 55.748 226.406C56.272 226.406 56.534 226.15 56.534 225.638V225.254C56.446 225.418 56.318 225.546 56.15 225.638C55.982 225.726 55.79 225.77 55.574 225.77C55.318 225.77 55.09 225.71 54.89 225.59C54.694 225.466 54.54 225.294 54.428 225.074C54.316 224.854 54.26 224.6 54.26 224.312C54.26 224.024 54.314 223.77 54.422 223.55C54.534 223.326 54.69 223.154 54.89 223.034C55.09 222.91 55.318 222.848 55.574 222.848C55.79 222.848 55.982 222.894 56.15 222.986C56.318 223.074 56.446 223.2 56.534 223.364V223.208C56.534 223.104 56.568 223.02 56.636 222.956C56.704 222.892 56.794 222.86 56.906 222.86ZM55.772 225.188C56.012 225.188 56.198 225.11 56.33 224.954C56.466 224.798 56.534 224.584 56.534 224.312C56.534 224.036 56.466 223.82 56.33 223.664C56.198 223.508 56.012 223.43 55.772 223.43C55.536 223.43 55.35 223.508 55.214 223.664C55.078 223.82 55.01 224.036 55.01 224.312C55.01 224.584 55.078 224.798 55.214 224.954C55.35 225.11 55.536 225.188 55.772 225.188ZM58.5048 225.89C58.3888 225.89 58.2948 225.854 58.2228 225.782C58.1548 225.71 58.1208 225.616 58.1208 225.5V221.978C58.1208 221.862 58.1548 221.77 58.2228 221.702C58.2948 221.63 58.3888 221.594 58.5048 221.594C58.6248 221.594 58.7188 221.63 58.7868 221.702C58.8588 221.77 58.8948 221.862 58.8948 221.978V225.5C58.8948 225.616 58.8588 225.71 58.7868 225.782C58.7188 225.854 58.6248 225.89 58.5048 225.89ZM61.4463 222.848C61.7983 222.848 62.0603 222.948 62.2323 223.148C62.4043 223.348 62.4903 223.65 62.4903 224.054V225.53C62.4903 225.642 62.4563 225.73 62.3883 225.794C62.3243 225.858 62.2343 225.89 62.1183 225.89C62.0023 225.89 61.9103 225.858 61.8423 225.794C61.7743 225.73 61.7403 225.642 61.7403 225.53V224.096C61.7403 223.868 61.6963 223.702 61.6083 223.598C61.5243 223.494 61.3903 223.442 61.2063 223.442C60.9903 223.442 60.8163 223.51 60.6843 223.646C60.5563 223.782 60.4923 223.964 60.4923 224.192V225.53C60.4923 225.642 60.4583 225.73 60.3903 225.794C60.3223 225.858 60.2303 225.89 60.1143 225.89C59.9983 225.89 59.9063 225.858 59.8383 225.794C59.7743 225.73 59.7423 225.642 59.7423 225.53V223.208C59.7423 223.104 59.7763 223.02 59.8443 222.956C59.9123 222.892 60.0043 222.86 60.1203 222.86C60.2243 222.86 60.3083 222.892 60.3723 222.956C60.4403 223.016 60.4743 223.096 60.4743 223.196V223.358C60.5743 223.194 60.7083 223.068 60.8763 222.98C61.0443 222.892 61.2343 222.848 61.4463 222.848Z" fill="white"/>
<path d="M45.3967 153.813C45.31 153.766 45.26 153.7 45.2467 153.613C45.24 153.526 45.2667 153.433 45.3267 153.333L46.0267 152.233L46.1367 152.393L44.8267 152.443C44.7067 152.443 44.61 152.42 44.5367 152.373C44.47 152.32 44.4367 152.243 44.4367 152.143C44.4367 152.05 44.47 151.98 44.5367 151.933C44.61 151.88 44.7067 151.856 44.8267 151.863L46.1367 151.913L46.0267 152.063L45.3367 150.953C45.27 150.853 45.2434 150.76 45.2567 150.673C45.27 150.586 45.3167 150.52 45.3967 150.473C45.4767 150.426 45.5567 150.423 45.6367 150.463C45.7234 150.503 45.7934 150.576 45.8467 150.683L46.4167 151.783H46.3167L46.8867 150.683C46.9467 150.576 47.0167 150.503 47.0967 150.463C47.1834 150.423 47.2667 150.426 47.3467 150.473C47.4267 150.526 47.47 150.596 47.4767 150.683C47.49 150.77 47.4634 150.863 47.3967 150.963L46.7067 152.063L46.5967 151.913L47.9067 151.863C48.0267 151.856 48.12 151.88 48.1867 151.933C48.26 151.98 48.2967 152.05 48.2967 152.143C48.2967 152.243 48.26 152.32 48.1867 152.373C48.12 152.42 48.0267 152.443 47.9067 152.443L46.5967 152.393L46.7067 152.233L47.3967 153.333C47.4634 153.433 47.49 153.526 47.4767 153.613C47.47 153.693 47.4267 153.756 47.3467 153.803C47.26 153.856 47.1734 153.863 47.0867 153.823C47.0067 153.783 46.94 153.713 46.8867 153.613L46.3167 152.513H46.4167L45.8367 153.613C45.7834 153.72 45.7167 153.793 45.6367 153.833C45.5567 153.873 45.4767 153.866 45.3967 153.813ZM53.1987 153.813C53.112 153.766 53.062 153.7 53.0487 153.613C53.042 153.526 53.0687 153.433 53.1287 153.333L53.8287 152.233L53.9387 152.393L52.6287 152.443C52.5087 152.443 52.412 152.42 52.3387 152.373C52.272 152.32 52.2387 152.243 52.2387 152.143C52.2387 152.05 52.272 151.98 52.3387 151.933C52.412 151.88 52.5087 151.856 52.6287 151.863L53.9387 151.913L53.8287 152.063L53.1387 150.953C53.072 150.853 53.0453 150.76 53.0587 150.673C53.072 150.586 53.1187 150.52 53.1987 150.473C53.2787 150.426 53.3587 150.423 53.4387 150.463C53.5253 150.503 53.5953 150.576 53.6487 150.683L54.2187 151.783H54.1187L54.6887 150.683C54.7487 150.576 54.8187 150.503 54.8987 150.463C54.9853 150.423 55.0687 150.426 55.1487 150.473C55.2287 150.526 55.272 150.596 55.2787 150.683C55.292 150.77 55.2653 150.863 55.1987 150.963L54.5087 152.063L54.3987 151.913L55.7087 151.863C55.8287 151.856 55.922 151.88 55.9887 151.933C56.062 151.98 56.0987 152.05 56.0987 152.143C56.0987 152.243 56.062 152.32 55.9887 152.373C55.922 152.42 55.8287 152.443 55.7087 152.443L54.3987 152.393L54.5087 152.233L55.1987 153.333C55.2653 153.433 55.292 153.526 55.2787 153.613C55.272 153.693 55.2287 153.756 55.1487 153.803C55.062 153.856 54.9753 153.863 54.8887 153.823C54.8087 153.783 54.742 153.713 54.6887 153.613L54.1187 152.513H54.2187L53.6387 153.613C53.5853 153.72 53.5187 153.793 53.4387 153.833C53.3587 153.873 53.2787 153.866 53.1987 153.813ZM61.0006 153.813C60.9139 153.766 60.8639 153.7 60.8506 153.613C60.8439 153.526 60.8706 153.433 60.9306 153.333L61.6306 152.233L61.7406 152.393L60.4306 152.443C60.3106 152.443 60.2139 152.42 60.1406 152.373C60.0739 152.32 60.0406 152.243 60.0406 152.143C60.0406 152.05 60.0739 151.98 60.1406 151.933C60.2139 151.88 60.3106 151.856 60.4306 151.863L61.7406 151.913L61.6306 152.063L60.9406 150.953C60.8739 150.853 60.8473 150.76 60.8606 150.673C60.8739 150.586 60.9206 150.52 61.0006 150.473C61.0806 150.426 61.1606 150.423 61.2406 150.463C61.3273 150.503 61.3973 150.576 61.4506 150.683L62.0206 151.783H61.9206L62.4906 150.683C62.5506 150.576 62.6206 150.503 62.7006 150.463C62.7873 150.423 62.8706 150.426 62.9506 150.473C63.0306 150.526 63.0739 150.596 63.0806 150.683C63.0939 150.77 63.0673 150.863 63.0006 150.963L62.3106 152.063L62.2006 151.913L63.5106 151.863C63.6306 151.856 63.7239 151.88 63.7906 151.933C63.8639 151.98 63.9006 152.05 63.9006 152.143C63.9006 152.243 63.8639 152.32 63.7906 152.373C63.7239 152.42 63.6306 152.443 63.5106 152.443L62.2006 152.393L62.3106 152.233L63.0006 153.333C63.0673 153.433 63.0939 153.526 63.0806 153.613C63.0739 153.693 63.0306 153.756 62.9506 153.803C62.8639 153.856 62.7773 153.863 62.6906 153.823C62.6106 153.783 62.5439 153.713 62.4906 153.613L61.9206 152.513H62.0206L61.4406 153.613C61.3873 153.72 61.3206 153.793 61.2406 153.833C61.1606 153.873 61.0806 153.866 61.0006 153.813ZM68.8026 153.813C68.7159 153.766 68.6659 153.7 68.6526 153.613C68.6459 153.526 68.6726 153.433 68.7326 153.333L69.4326 152.233L69.5426 152.393L68.2326 152.443C68.1126 152.443 68.0159 152.42 67.9426 152.373C67.8759 152.32 67.8426 152.243 67.8426 152.143C67.8426 152.05 67.8759 151.98 67.9426 151.933C68.0159 151.88 68.1126 151.856 68.2326 151.863L69.5426 151.913L69.4326 152.063L68.7426 150.953C68.6759 150.853 68.6492 150.76 68.6626 150.673C68.6759 150.586 68.7226 150.52 68.8026 150.473C68.8826 150.426 68.9626 150.423 69.0426 150.463C69.1292 150.503 69.1992 150.576 69.2526 150.683L69.8226 151.783H69.7226L70.2926 150.683C70.3526 150.576 70.4226 150.503 70.5026 150.463C70.5892 150.423 70.6726 150.426 70.7526 150.473C70.8326 150.526 70.8759 150.596 70.8826 150.683C70.8959 150.77 70.8692 150.863 70.8026 150.963L70.1126 152.063L70.0026 151.913L71.3126 151.863C71.4326 151.856 71.5259 151.88 71.5926 151.933C71.6659 151.98 71.7026 152.05 71.7026 152.143C71.7026 152.243 71.6659 152.32 71.5926 152.373C71.5259 152.42 71.4326 152.443 71.3126 152.443L70.0026 152.393L70.1126 152.233L70.8026 153.333C70.8692 153.433 70.8959 153.526 70.8826 153.613C70.8759 153.693 70.8326 153.756 70.7526 153.803C70.6659 153.856 70.5792 153.863 70.4926 153.823C70.4126 153.783 70.3459 153.713 70.2926 153.613L69.7226 152.513H69.8226L69.2426 153.613C69.1892 153.72 69.1226 153.793 69.0426 153.833C68.9626 153.873 68.8826 153.866 68.8026 153.813ZM76.6045 153.813C76.5178 153.766 76.4678 153.7 76.4545 153.613C76.4478 153.526 76.4745 153.433 76.5345 153.333L77.2345 152.233L77.3445 152.393L76.0345 152.443C75.9145 152.443 75.8178 152.42 75.7445 152.373C75.6778 152.32 75.6445 152.243 75.6445 152.143C75.6445 152.05 75.6778 151.98 75.7445 151.933C75.8178 151.88 75.9145 151.856 76.0345 151.863L77.3445 151.913L77.2345 152.063L76.5445 150.953C76.4778 150.853 76.4512 150.76 76.4645 150.673C76.4778 150.586 76.5245 150.52 76.6045 150.473C76.6845 150.426 76.7645 150.423 76.8445 150.463C76.9312 150.503 77.0012 150.576 77.0545 150.683L77.6245 151.783H77.5245L78.0945 150.683C78.1545 150.576 78.2245 150.503 78.3045 150.463C78.3912 150.423 78.4745 150.426 78.5545 150.473C78.6345 150.526 78.6778 150.596 78.6845 150.683C78.6978 150.77 78.6712 150.863 78.6045 150.963L77.9145 152.063L77.8045 151.913L79.1145 151.863C79.2345 151.856 79.3278 151.88 79.3945 151.933C79.4678 151.98 79.5045 152.05 79.5045 152.143C79.5045 152.243 79.4678 152.32 79.3945 152.373C79.3278 152.42 79.2345 152.443 79.1145 152.443L77.8045 152.393L77.9145 152.233L78.6045 153.333C78.6712 153.433 78.6978 153.526 78.6845 153.613C78.6778 153.693 78.6345 153.756 78.5545 153.803C78.4678 153.856 78.3812 153.863 78.2945 153.823C78.2145 153.783 78.1478 153.713 78.0945 153.613L77.5245 152.513H77.6245L77.0445 153.613C76.9912 153.72 76.9245 153.793 76.8445 153.833C76.7645 153.873 76.6845 153.866 76.6045 153.813ZM84.4065 153.813C84.3198 153.766 84.2698 153.7 84.2565 153.613C84.2498 153.526 84.2765 153.433 84.3365 153.333L85.0365 152.233L85.1465 152.393L83.8365 152.443C83.7165 152.443 83.6198 152.42 83.5465 152.373C83.4798 152.32 83.4465 152.243 83.4465 152.143C83.4465 152.05 83.4798 151.98 83.5465 151.933C83.6198 151.88 83.7165 151.856 83.8365 151.863L85.1465 151.913L85.0365 152.063L84.3465 150.953C84.2798 150.853 84.2531 150.76 84.2665 150.673C84.2798 150.586 84.3265 150.52 84.4065 150.473C84.4865 150.426 84.5665 150.423 84.6465 150.463C84.7331 150.503 84.8031 150.576 84.8565 150.683L85.4265 151.783H85.3265L85.8965 150.683C85.9565 150.576 86.0265 150.503 86.1065 150.463C86.1931 150.423 86.2765 150.426 86.3565 150.473C86.4365 150.526 86.4798 150.596 86.4865 150.683C86.4998 150.77 86.4731 150.863 86.4065 150.963L85.7165 152.063L85.6065 151.913L86.9165 151.863C87.0365 151.856 87.1298 151.88 87.1965 151.933C87.2698 151.98 87.3065 152.05 87.3065 152.143C87.3065 152.243 87.2698 152.32 87.1965 152.373C87.1298 152.42 87.0365 152.443 86.9165 152.443L85.6065 152.393L85.7165 152.233L86.4065 153.333C86.4731 153.433 86.4998 153.526 86.4865 153.613C86.4798 153.693 86.4365 153.756 86.3565 153.803C86.2698 153.856 86.1831 153.863 86.0965 153.823C86.0165 153.783 85.9498 153.713 85.8965 153.613L85.3265 152.513H85.4265L84.8465 153.613C84.7931 153.72 84.7265 153.793 84.6465 153.833C84.5665 153.873 84.4865 153.866 84.4065 153.813ZM92.2084 153.813C92.1218 153.766 92.0718 153.7 92.0584 153.613C92.0518 153.526 92.0784 153.433 92.1384 153.333L92.8384 152.233L92.9484 152.393L91.6384 152.443C91.5184 152.443 91.4218 152.42 91.3484 152.373C91.2818 152.32 91.2484 152.243 91.2484 152.143C91.2484 152.05 91.2818 151.98 91.3484 151.933C91.4218 151.88 91.5184 151.856 91.6384 151.863L92.9484 151.913L92.8384 152.063L92.1484 150.953C92.0818 150.853 92.0551 150.76 92.0684 150.673C92.0818 150.586 92.1284 150.52 92.2084 150.473C92.2884 150.426 92.3684 150.423 92.4484 150.463C92.5351 150.503 92.6051 150.576 92.6584 150.683L93.2284 151.783H93.1284L93.6984 150.683C93.7584 150.576 93.8284 150.503 93.9084 150.463C93.9951 150.423 94.0784 150.426 94.1584 150.473C94.2384 150.526 94.2818 150.596 94.2884 150.683C94.3018 150.77 94.2751 150.863 94.2084 150.963L93.5184 152.063L93.4084 151.913L94.7184 151.863C94.8384 151.856 94.9318 151.88 94.9984 151.933C95.0718 151.98 95.1084 152.05 95.1084 152.143C95.1084 152.243 95.0718 152.32 94.9984 152.373C94.9318 152.42 94.8384 152.443 94.7184 152.443L93.4084 152.393L93.5184 152.233L94.2084 153.333C94.2751 153.433 94.3018 153.526 94.2884 153.613C94.2818 153.693 94.2384 153.756 94.1584 153.803C94.0718 153.856 93.9851 153.863 93.8984 153.823C93.8184 153.783 93.7518 153.713 93.6984 153.613L93.1284 152.513H93.2284L92.6484 153.613C92.5951 153.72 92.5284 153.793 92.4484 153.833C92.3684 153.873 92.2884 153.866 92.2084 153.813ZM100.01 153.813C99.9237 153.766 99.8737 153.7 99.8604 153.613C99.8537 153.526 99.8804 153.433 99.9404 153.333L100.64 152.233L100.75 152.393L99.4404 152.443C99.3204 152.443 99.2237 152.42 99.1504 152.373C99.0837 152.32 99.0504 152.243 99.0504 152.143C99.0504 152.05 99.0837 151.98 99.1504 151.933C99.2237 151.88 99.3204 151.856 99.4404 151.863L100.75 151.913L100.64 152.063L99.9504 150.953C99.8837 150.853 99.857 150.76 99.8704 150.673C99.8837 150.586 99.9304 150.52 100.01 150.473C100.09 150.426 100.17 150.423 100.25 150.463C100.337 150.503 100.407 150.576 100.46 150.683L101.03 151.783H100.93L101.5 150.683C101.56 150.576 101.63 150.503 101.71 150.463C101.797 150.423 101.88 150.426 101.96 150.473C102.04 150.526 102.084 150.596 102.09 150.683C102.104 150.77 102.077 150.863 102.01 150.963L101.32 152.063L101.21 151.913L102.52 151.863C102.64 151.856 102.734 151.88 102.8 151.933C102.874 151.98 102.91 152.05 102.91 152.143C102.91 152.243 102.874 152.32 102.8 152.373C102.734 152.42 102.64 152.443 102.52 152.443L101.21 152.393L101.32 152.233L102.01 153.333C102.077 153.433 102.104 153.526 102.09 153.613C102.084 153.693 102.04 153.756 101.96 153.803C101.874 153.856 101.787 153.863 101.7 153.823C101.62 153.783 101.554 153.713 101.5 153.613L100.93 152.513H101.03L100.45 153.613C100.397 153.72 100.33 153.793 100.25 153.833C100.17 153.873 100.09 153.866 100.01 153.813ZM107.812 153.813C107.726 153.766 107.676 153.7 107.662 153.613C107.656 153.526 107.682 153.433 107.742 153.333L108.442 152.233L108.552 152.393L107.242 152.443C107.122 152.443 107.026 152.42 106.952 152.373C106.886 152.32 106.852 152.243 106.852 152.143C106.852 152.05 106.886 151.98 106.952 151.933C107.026 151.88 107.122 151.856 107.242 151.863L108.552 151.913L108.442 152.063L107.752 150.953C107.686 150.853 107.659 150.76 107.672 150.673C107.686 150.586 107.732 150.52 107.812 150.473C107.892 150.426 107.972 150.423 108.052 150.463C108.139 150.503 108.209 150.576 108.262 150.683L108.832 151.783H108.732L109.302 150.683C109.362 150.576 109.432 150.503 109.512 150.463C109.599 150.423 109.682 150.426 109.762 150.473C109.842 150.526 109.886 150.596 109.892 150.683C109.906 150.77 109.879 150.863 109.812 150.963L109.122 152.063L109.012 151.913L110.322 151.863C110.442 151.856 110.536 151.88 110.602 151.933C110.676 151.98 110.712 152.05 110.712 152.143C110.712 152.243 110.676 152.32 110.602 152.373C110.536 152.42 110.442 152.443 110.322 152.443L109.012 152.393L109.122 152.233L109.812 153.333C109.879 153.433 109.906 153.526 109.892 153.613C109.886 153.693 109.842 153.756 109.762 153.803C109.676 153.856 109.589 153.863 109.502 153.823C109.422 153.783 109.356 153.713 109.302 153.613L108.732 152.513H108.832L108.252 153.613C108.199 153.72 108.132 153.793 108.052 153.833C107.972 153.873 107.892 153.866 107.812 153.813ZM115.614 153.813C115.528 153.766 115.478 153.7 115.464 153.613C115.458 153.526 115.484 153.433 115.544 153.333L116.244 152.233L116.354 152.393L115.044 152.443C114.924 152.443 114.828 152.42 114.754 152.373C114.688 152.32 114.654 152.243 114.654 152.143C114.654 152.05 114.688 151.98 114.754 151.933C114.828 151.88 114.924 151.856 115.044 151.863L116.354 151.913L116.244 152.063L115.554 150.953C115.488 150.853 115.461 150.76 115.474 150.673C115.488 150.586 115.534 150.52 115.614 150.473C115.694 150.426 115.774 150.423 115.854 150.463C115.941 150.503 116.011 150.576 116.064 150.683L116.634 151.783H116.534L117.104 150.683C117.164 150.576 117.234 150.503 117.314 150.463C117.401 150.423 117.484 150.426 117.564 150.473C117.644 150.526 117.688 150.596 117.694 150.683C117.708 150.77 117.681 150.863 117.614 150.963L116.924 152.063L116.814 151.913L118.124 151.863C118.244 151.856 118.338 151.88 118.404 151.933C118.478 151.98 118.514 152.05 118.514 152.143C118.514 152.243 118.478 152.32 118.404 152.373C118.338 152.42 118.244 152.443 118.124 152.443L116.814 152.393L116.924 152.233L117.614 153.333C117.681 153.433 117.708 153.526 117.694 153.613C117.688 153.693 117.644 153.756 117.564 153.803C117.478 153.856 117.391 153.863 117.304 153.823C117.224 153.783 117.158 153.713 117.104 153.613L116.534 152.513H116.634L116.054 153.613C116.001 153.72 115.934 153.793 115.854 153.833C115.774 153.873 115.694 153.866 115.614 153.813Z" fill="url(#paint0_linear_763_2774)"/>
<path d="M45.3967 195.421C45.31 195.374 45.26 195.307 45.2467 195.221C45.24 195.134 45.2667 195.041 45.3267 194.941L46.0267 193.841L46.1367 194.001L44.8267 194.051C44.7067 194.051 44.61 194.027 44.5367 193.981C44.47 193.927 44.4367 193.851 44.4367 193.751C44.4367 193.657 44.47 193.587 44.5367 193.541C44.61 193.487 44.7067 193.464 44.8267 193.471L46.1367 193.521L46.0267 193.671L45.3367 192.561C45.27 192.461 45.2434 192.367 45.2567 192.281C45.27 192.194 45.3167 192.127 45.3967 192.081C45.4767 192.034 45.5567 192.031 45.6367 192.071C45.7234 192.111 45.7934 192.184 45.8467 192.291L46.4167 193.391H46.3167L46.8867 192.291C46.9467 192.184 47.0167 192.111 47.0967 192.071C47.1834 192.031 47.2667 192.034 47.3467 192.081C47.4267 192.134 47.47 192.204 47.4767 192.291C47.49 192.377 47.4634 192.471 47.3967 192.571L46.7067 193.671L46.5967 193.521L47.9067 193.471C48.0267 193.464 48.12 193.487 48.1867 193.541C48.26 193.587 48.2967 193.657 48.2967 193.751C48.2967 193.851 48.26 193.927 48.1867 193.981C48.12 194.027 48.0267 194.051 47.9067 194.051L46.5967 194.001L46.7067 193.841L47.3967 194.941C47.4634 195.041 47.49 195.134 47.4767 195.221C47.47 195.301 47.4267 195.364 47.3467 195.411C47.26 195.464 47.1734 195.471 47.0867 195.431C47.0067 195.391 46.94 195.321 46.8867 195.221L46.3167 194.121H46.4167L45.8367 195.221C45.7834 195.327 45.7167 195.401 45.6367 195.441C45.5567 195.481 45.4767 195.474 45.3967 195.421ZM53.1987 195.421C53.112 195.374 53.062 195.307 53.0487 195.221C53.042 195.134 53.0687 195.041 53.1287 194.941L53.8287 193.841L53.9387 194.001L52.6287 194.051C52.5087 194.051 52.412 194.027 52.3387 193.981C52.272 193.927 52.2387 193.851 52.2387 193.751C52.2387 193.657 52.272 193.587 52.3387 193.541C52.412 193.487 52.5087 193.464 52.6287 193.471L53.9387 193.521L53.8287 193.671L53.1387 192.561C53.072 192.461 53.0453 192.367 53.0587 192.281C53.072 192.194 53.1187 192.127 53.1987 192.081C53.2787 192.034 53.3587 192.031 53.4387 192.071C53.5253 192.111 53.5953 192.184 53.6487 192.291L54.2187 193.391H54.1187L54.6887 192.291C54.7487 192.184 54.8187 192.111 54.8987 192.071C54.9853 192.031 55.0687 192.034 55.1487 192.081C55.2287 192.134 55.272 192.204 55.2787 192.291C55.292 192.377 55.2653 192.471 55.1987 192.571L54.5087 193.671L54.3987 193.521L55.7087 193.471C55.8287 193.464 55.922 193.487 55.9887 193.541C56.062 193.587 56.0987 193.657 56.0987 193.751C56.0987 193.851 56.062 193.927 55.9887 193.981C55.922 194.027 55.8287 194.051 55.7087 194.051L54.3987 194.001L54.5087 193.841L55.1987 194.941C55.2653 195.041 55.292 195.134 55.2787 195.221C55.272 195.301 55.2287 195.364 55.1487 195.411C55.062 195.464 54.9753 195.471 54.8887 195.431C54.8087 195.391 54.742 195.321 54.6887 195.221L54.1187 194.121H54.2187L53.6387 195.221C53.5853 195.327 53.5187 195.401 53.4387 195.441C53.3587 195.481 53.2787 195.474 53.1987 195.421ZM61.0006 195.421C60.9139 195.374 60.8639 195.307 60.8506 195.221C60.8439 195.134 60.8706 195.041 60.9306 194.941L61.6306 193.841L61.7406 194.001L60.4306 194.051C60.3106 194.051 60.2139 194.027 60.1406 193.981C60.0739 193.927 60.0406 193.851 60.0406 193.751C60.0406 193.657 60.0739 193.587 60.1406 193.541C60.2139 193.487 60.3106 193.464 60.4306 193.471L61.7406 193.521L61.6306 193.671L60.9406 192.561C60.8739 192.461 60.8473 192.367 60.8606 192.281C60.8739 192.194 60.9206 192.127 61.0006 192.081C61.0806 192.034 61.1606 192.031 61.2406 192.071C61.3273 192.111 61.3973 192.184 61.4506 192.291L62.0206 193.391H61.9206L62.4906 192.291C62.5506 192.184 62.6206 192.111 62.7006 192.071C62.7873 192.031 62.8706 192.034 62.9506 192.081C63.0306 192.134 63.0739 192.204 63.0806 192.291C63.0939 192.377 63.0673 192.471 63.0006 192.571L62.3106 193.671L62.2006 193.521L63.5106 193.471C63.6306 193.464 63.7239 193.487 63.7906 193.541C63.8639 193.587 63.9006 193.657 63.9006 193.751C63.9006 193.851 63.8639 193.927 63.7906 193.981C63.7239 194.027 63.6306 194.051 63.5106 194.051L62.2006 194.001L62.3106 193.841L63.0006 194.941C63.0673 195.041 63.0939 195.134 63.0806 195.221C63.0739 195.301 63.0306 195.364 62.9506 195.411C62.8639 195.464 62.7773 195.471 62.6906 195.431C62.6106 195.391 62.5439 195.321 62.4906 195.221L61.9206 194.121H62.0206L61.4406 195.221C61.3873 195.327 61.3206 195.401 61.2406 195.441C61.1606 195.481 61.0806 195.474 61.0006 195.421ZM68.8026 195.421C68.7159 195.374 68.6659 195.307 68.6526 195.221C68.6459 195.134 68.6726 195.041 68.7326 194.941L69.4326 193.841L69.5426 194.001L68.2326 194.051C68.1126 194.051 68.0159 194.027 67.9426 193.981C67.8759 193.927 67.8426 193.851 67.8426 193.751C67.8426 193.657 67.8759 193.587 67.9426 193.541C68.0159 193.487 68.1126 193.464 68.2326 193.471L69.5426 193.521L69.4326 193.671L68.7426 192.561C68.6759 192.461 68.6492 192.367 68.6626 192.281C68.6759 192.194 68.7226 192.127 68.8026 192.081C68.8826 192.034 68.9626 192.031 69.0426 192.071C69.1292 192.111 69.1992 192.184 69.2526 192.291L69.8226 193.391H69.7226L70.2926 192.291C70.3526 192.184 70.4226 192.111 70.5026 192.071C70.5892 192.031 70.6726 192.034 70.7526 192.081C70.8326 192.134 70.8759 192.204 70.8826 192.291C70.8959 192.377 70.8692 192.471 70.8026 192.571L70.1126 193.671L70.0026 193.521L71.3126 193.471C71.4326 193.464 71.5259 193.487 71.5926 193.541C71.6659 193.587 71.7026 193.657 71.7026 193.751C71.7026 193.851 71.6659 193.927 71.5926 193.981C71.5259 194.027 71.4326 194.051 71.3126 194.051L70.0026 194.001L70.1126 193.841L70.8026 194.941C70.8692 195.041 70.8959 195.134 70.8826 195.221C70.8759 195.301 70.8326 195.364 70.7526 195.411C70.6659 195.464 70.5792 195.471 70.4926 195.431C70.4126 195.391 70.3459 195.321 70.2926 195.221L69.7226 194.121H69.8226L69.2426 195.221C69.1892 195.327 69.1226 195.401 69.0426 195.441C68.9626 195.481 68.8826 195.474 68.8026 195.421ZM76.6045 195.421C76.5178 195.374 76.4678 195.307 76.4545 195.221C76.4478 195.134 76.4745 195.041 76.5345 194.941L77.2345 193.841L77.3445 194.001L76.0345 194.051C75.9145 194.051 75.8178 194.027 75.7445 193.981C75.6778 193.927 75.6445 193.851 75.6445 193.751C75.6445 193.657 75.6778 193.587 75.7445 193.541C75.8178 193.487 75.9145 193.464 76.0345 193.471L77.3445 193.521L77.2345 193.671L76.5445 192.561C76.4778 192.461 76.4512 192.367 76.4645 192.281C76.4778 192.194 76.5245 192.127 76.6045 192.081C76.6845 192.034 76.7645 192.031 76.8445 192.071C76.9312 192.111 77.0012 192.184 77.0545 192.291L77.6245 193.391H77.5245L78.0945 192.291C78.1545 192.184 78.2245 192.111 78.3045 192.071C78.3912 192.031 78.4745 192.034 78.5545 192.081C78.6345 192.134 78.6778 192.204 78.6845 192.291C78.6978 192.377 78.6712 192.471 78.6045 192.571L77.9145 193.671L77.8045 193.521L79.1145 193.471C79.2345 193.464 79.3278 193.487 79.3945 193.541C79.4678 193.587 79.5045 193.657 79.5045 193.751C79.5045 193.851 79.4678 193.927 79.3945 193.981C79.3278 194.027 79.2345 194.051 79.1145 194.051L77.8045 194.001L77.9145 193.841L78.6045 194.941C78.6712 195.041 78.6978 195.134 78.6845 195.221C78.6778 195.301 78.6345 195.364 78.5545 195.411C78.4678 195.464 78.3812 195.471 78.2945 195.431C78.2145 195.391 78.1478 195.321 78.0945 195.221L77.5245 194.121H77.6245L77.0445 195.221C76.9912 195.327 76.9245 195.401 76.8445 195.441C76.7645 195.481 76.6845 195.474 76.6045 195.421ZM84.4065 195.421C84.3198 195.374 84.2698 195.307 84.2565 195.221C84.2498 195.134 84.2765 195.041 84.3365 194.941L85.0365 193.841L85.1465 194.001L83.8365 194.051C83.7165 194.051 83.6198 194.027 83.5465 193.981C83.4798 193.927 83.4465 193.851 83.4465 193.751C83.4465 193.657 83.4798 193.587 83.5465 193.541C83.6198 193.487 83.7165 193.464 83.8365 193.471L85.1465 193.521L85.0365 193.671L84.3465 192.561C84.2798 192.461 84.2531 192.367 84.2665 192.281C84.2798 192.194 84.3265 192.127 84.4065 192.081C84.4865 192.034 84.5665 192.031 84.6465 192.071C84.7331 192.111 84.8031 192.184 84.8565 192.291L85.4265 193.391H85.3265L85.8965 192.291C85.9565 192.184 86.0265 192.111 86.1065 192.071C86.1931 192.031 86.2765 192.034 86.3565 192.081C86.4365 192.134 86.4798 192.204 86.4865 192.291C86.4998 192.377 86.4731 192.471 86.4065 192.571L85.7165 193.671L85.6065 193.521L86.9165 193.471C87.0365 193.464 87.1298 193.487 87.1965 193.541C87.2698 193.587 87.3065 193.657 87.3065 193.751C87.3065 193.851 87.2698 193.927 87.1965 193.981C87.1298 194.027 87.0365 194.051 86.9165 194.051L85.6065 194.001L85.7165 193.841L86.4065 194.941C86.4731 195.041 86.4998 195.134 86.4865 195.221C86.4798 195.301 86.4365 195.364 86.3565 195.411C86.2698 195.464 86.1831 195.471 86.0965 195.431C86.0165 195.391 85.9498 195.321 85.8965 195.221L85.3265 194.121H85.4265L84.8465 195.221C84.7931 195.327 84.7265 195.401 84.6465 195.441C84.5665 195.481 84.4865 195.474 84.4065 195.421ZM92.2084 195.421C92.1218 195.374 92.0718 195.307 92.0584 195.221C92.0518 195.134 92.0784 195.041 92.1384 194.941L92.8384 193.841L92.9484 194.001L91.6384 194.051C91.5184 194.051 91.4218 194.027 91.3484 193.981C91.2818 193.927 91.2484 193.851 91.2484 193.751C91.2484 193.657 91.2818 193.587 91.3484 193.541C91.4218 193.487 91.5184 193.464 91.6384 193.471L92.9484 193.521L92.8384 193.671L92.1484 192.561C92.0818 192.461 92.0551 192.367 92.0684 192.281C92.0818 192.194 92.1284 192.127 92.2084 192.081C92.2884 192.034 92.3684 192.031 92.4484 192.071C92.5351 192.111 92.6051 192.184 92.6584 192.291L93.2284 193.391H93.1284L93.6984 192.291C93.7584 192.184 93.8284 192.111 93.9084 192.071C93.9951 192.031 94.0784 192.034 94.1584 192.081C94.2384 192.134 94.2818 192.204 94.2884 192.291C94.3018 192.377 94.2751 192.471 94.2084 192.571L93.5184 193.671L93.4084 193.521L94.7184 193.471C94.8384 193.464 94.9318 193.487 94.9984 193.541C95.0718 193.587 95.1084 193.657 95.1084 193.751C95.1084 193.851 95.0718 193.927 94.9984 193.981C94.9318 194.027 94.8384 194.051 94.7184 194.051L93.4084 194.001L93.5184 193.841L94.2084 194.941C94.2751 195.041 94.3018 195.134 94.2884 195.221C94.2818 195.301 94.2384 195.364 94.1584 195.411C94.0718 195.464 93.9851 195.471 93.8984 195.431C93.8184 195.391 93.7518 195.321 93.6984 195.221L93.1284 194.121H93.2284L92.6484 195.221C92.5951 195.327 92.5284 195.401 92.4484 195.441C92.3684 195.481 92.2884 195.474 92.2084 195.421ZM100.01 195.421C99.9237 195.374 99.8737 195.307 99.8604 195.221C99.8537 195.134 99.8804 195.041 99.9404 194.941L100.64 193.841L100.75 194.001L99.4404 194.051C99.3204 194.051 99.2237 194.027 99.1504 193.981C99.0837 193.927 99.0504 193.851 99.0504 193.751C99.0504 193.657 99.0837 193.587 99.1504 193.541C99.2237 193.487 99.3204 193.464 99.4404 193.471L100.75 193.521L100.64 193.671L99.9504 192.561C99.8837 192.461 99.857 192.367 99.8704 192.281C99.8837 192.194 99.9304 192.127 100.01 192.081C100.09 192.034 100.17 192.031 100.25 192.071C100.337 192.111 100.407 192.184 100.46 192.291L101.03 193.391H100.93L101.5 192.291C101.56 192.184 101.63 192.111 101.71 192.071C101.797 192.031 101.88 192.034 101.96 192.081C102.04 192.134 102.084 192.204 102.09 192.291C102.104 192.377 102.077 192.471 102.01 192.571L101.32 193.671L101.21 193.521L102.52 193.471C102.64 193.464 102.734 193.487 102.8 193.541C102.874 193.587 102.91 193.657 102.91 193.751C102.91 193.851 102.874 193.927 102.8 193.981C102.734 194.027 102.64 194.051 102.52 194.051L101.21 194.001L101.32 193.841L102.01 194.941C102.077 195.041 102.104 195.134 102.09 195.221C102.084 195.301 102.04 195.364 101.96 195.411C101.874 195.464 101.787 195.471 101.7 195.431C101.62 195.391 101.554 195.321 101.5 195.221L100.93 194.121H101.03L100.45 195.221C100.397 195.327 100.33 195.401 100.25 195.441C100.17 195.481 100.09 195.474 100.01 195.421ZM107.812 195.421C107.726 195.374 107.676 195.307 107.662 195.221C107.656 195.134 107.682 195.041 107.742 194.941L108.442 193.841L108.552 194.001L107.242 194.051C107.122 194.051 107.026 194.027 106.952 193.981C106.886 193.927 106.852 193.851 106.852 193.751C106.852 193.657 106.886 193.587 106.952 193.541C107.026 193.487 107.122 193.464 107.242 193.471L108.552 193.521L108.442 193.671L107.752 192.561C107.686 192.461 107.659 192.367 107.672 192.281C107.686 192.194 107.732 192.127 107.812 192.081C107.892 192.034 107.972 192.031 108.052 192.071C108.139 192.111 108.209 192.184 108.262 192.291L108.832 193.391H108.732L109.302 192.291C109.362 192.184 109.432 192.111 109.512 192.071C109.599 192.031 109.682 192.034 109.762 192.081C109.842 192.134 109.886 192.204 109.892 192.291C109.906 192.377 109.879 192.471 109.812 192.571L109.122 193.671L109.012 193.521L110.322 193.471C110.442 193.464 110.536 193.487 110.602 193.541C110.676 193.587 110.712 193.657 110.712 193.751C110.712 193.851 110.676 193.927 110.602 193.981C110.536 194.027 110.442 194.051 110.322 194.051L109.012 194.001L109.122 193.841L109.812 194.941C109.879 195.041 109.906 195.134 109.892 195.221C109.886 195.301 109.842 195.364 109.762 195.411C109.676 195.464 109.589 195.471 109.502 195.431C109.422 195.391 109.356 195.321 109.302 195.221L108.732 194.121H108.832L108.252 195.221C108.199 195.327 108.132 195.401 108.052 195.441C107.972 195.481 107.892 195.474 107.812 195.421ZM115.614 195.421C115.528 195.374 115.478 195.307 115.464 195.221C115.458 195.134 115.484 195.041 115.544 194.941L116.244 193.841L116.354 194.001L115.044 194.051C114.924 194.051 114.828 194.027 114.754 193.981C114.688 193.927 114.654 193.851 114.654 193.751C114.654 193.657 114.688 193.587 114.754 193.541C114.828 193.487 114.924 193.464 115.044 193.471L116.354 193.521L116.244 193.671L115.554 192.561C115.488 192.461 115.461 192.367 115.474 192.281C115.488 192.194 115.534 192.127 115.614 192.081C115.694 192.034 115.774 192.031 115.854 192.071C115.941 192.111 116.011 192.184 116.064 192.291L116.634 193.391H116.534L117.104 192.291C117.164 192.184 117.234 192.111 117.314 192.071C117.401 192.031 117.484 192.034 117.564 192.081C117.644 192.134 117.688 192.204 117.694 192.291C117.708 192.377 117.681 192.471 117.614 192.571L116.924 193.671L116.814 193.521L118.124 193.471C118.244 193.464 118.338 193.487 118.404 193.541C118.478 193.587 118.514 193.657 118.514 193.751C118.514 193.851 118.478 193.927 118.404 193.981C118.338 194.027 118.244 194.051 118.124 194.051L116.814 194.001L116.924 193.841L117.614 194.941C117.681 195.041 117.708 195.134 117.694 195.221C117.688 195.301 117.644 195.364 117.564 195.411C117.478 195.464 117.391 195.471 117.304 195.431C117.224 195.391 117.158 195.321 117.104 195.221L116.534 194.121H116.634L116.054 195.221C116.001 195.327 115.934 195.401 115.854 195.441C115.774 195.481 115.694 195.474 115.614 195.421Z" fill="url(#paint1_linear_763_2774)"/>
<g filter="url(#filter1_d_763_2774)">
<rect x="175.51" y="68.7529" width="227.748" height="33.9431" rx="5" fill="url(#paint2_linear_763_2774)"/>
</g>
<rect x="269.674" y="82.9868" width="16.4241" height="4.37976" rx="2.18988" fill="white"/>
<rect x="290.478" y="82.9868" width="15.3292" height="4.37976" rx="2.18988" fill="white"/>
<rect x="188.649" y="78.6069" width="13.1393" height="13.1393" rx="5" fill="#7660FC"/>
<rect x="310.187" y="82.9868" width="16.4241" height="4.37976" rx="2.18988" fill="white"/>
<rect x="330.991" y="82.9868" width="16.4241" height="4.37976" rx="2.18988" fill="white"/>
<rect x="351.795" y="82.9868" width="16.4241" height="4.37976" rx="2.18988" fill="white"/>
<rect x="386.833" y="84.082" width="4.37976" height="2.18988" rx="1.09494" fill="white"/>
<defs>
<filter id="filter0_d_763_2774" x="0.743164" y="100.455" width="209.526" height="176.678" filterUnits="userSpaceOnUse" color-interpolation-filters="sRGB">
<feFlood flood-opacity="0" result="BackgroundImageFix"/>
<feColorMatrix in="SourceAlpha" type="matrix" values="0 0 0 0 0 0 0 0 0 0 0 0 0 0 0 0 0 0 127 0" result="hardAlpha"/>
<feOffset dx="5" dy="10"/>
<feGaussianBlur stdDeviation="10.5"/>
<feComposite in2="hardAlpha" operator="out"/>
<feColorMatrix type="matrix" values="0 0 0 0 0.700272 0 0 0 0 0.700272 0 0 0 0 0.700272 0 0 0 0.25 0"/>
<feBlend mode="normal" in2="BackgroundImageFix" result="effect1_dropShadow_763_2774"/>
<feBlend mode="normal" in="SourceGraphic" in2="effect1_dropShadow_763_2774" result="shape"/>
</filter>
<filter id="filter1_d_763_2774" x="174.51" y="68.7529" width="241.748" height="47.9434" filterUnits="userSpaceOnUse" color-interpolation-filters="sRGB">
<feFlood flood-opacity="0" result="BackgroundImageFix"/>
<feColorMatrix in="SourceAlpha" type="matrix" values="0 0 0 0 0 0 0 0 0 0 0 0 0 0 0 0 0 0 127 0" result="hardAlpha"/>
<feOffset dx="6" dy="7"/>
<feGaussianBlur stdDeviation="3.5"/>
<feComposite in2="hardAlpha" operator="out"/>
<feColorMatrix type="matrix" values="0 0 0 0 0.500272 0 0 0 0 0.500272 0 0 0 0 0.500272 0 0 0 0.25 0"/>
<feBlend mode="normal" in2="BackgroundImageFix" result="effect1_dropShadow_763_2774"/>
<feBlend mode="normal" in="SourceGraphic" in2="effect1_dropShadow_763_2774" result="shape"/>
</filter>
<linearGradient id="paint0_linear_763_2774" x1="126.237" y1="164.012" x2="-81.1171" y2="164.012" gradientUnits="userSpaceOnUse">
<stop stop-color="#9F1D6E"/>
<stop offset="0.258474" stop-color="#D5317E"/>
</linearGradient>
<linearGradient id="paint1_linear_763_2774" x1="126.237" y1="205.62" x2="-81.1171" y2="205.62" gradientUnits="userSpaceOnUse">
<stop stop-color="#9F1D6E"/>
<stop offset="0.258474" stop-color="#D5317E"/>
</linearGradient>
<linearGradient id="paint2_linear_763_2774" x1="403.257" y1="102.696" x2="-171.805" y2="102.696" gradientUnits="userSpaceOnUse">
<stop stop-color="#9F1D6E"/>
<stop offset="0.258474" stop-color="#D5317E"/>
</linearGradient>
</defs>
</svg>
