<svg width="326" height="70" viewBox="0 0 326 70" fill="none" xmlns="http://www.w3.org/2000/svg">
<path opacity="0.993" fill-rule="evenodd" clip-rule="evenodd" d="M33.4794 0.00177622C43.7427 -0.0932644 52.4222 3.62572 59.518 11.1587C61.4503 13.3164 63.1037 15.6814 64.4777 18.2523C64.8457 18.9397 65.1587 19.6511 65.416 20.3873C65.9073 22.7378 65.2263 24.6318 63.3718 26.0691C61.4596 27.2316 59.5609 27.2089 57.6748 26.0002C57.3082 25.6924 56.9624 25.3597 56.636 25.0016C55.9047 23.6132 55.1226 22.2585 54.2902 20.9383C49.4236 14.1153 42.8439 10.5802 34.5518 10.3323C27.173 10.4914 21.0627 13.4066 16.2209 19.0788C11.4093 25.1497 9.66673 32.0594 10.9931 39.8087C12.8078 48.0083 17.3989 53.9194 24.7664 57.5427C30.8695 60.23 37.0357 60.3905 43.2648 58.0248C49.2768 55.4814 53.689 51.2004 56.5019 45.1805C57.9315 43.3851 59.7526 42.7542 61.9643 43.2866C64.6707 44.3362 65.8436 46.3451 65.483 49.3127C65.412 49.6936 65.3001 50.0606 65.1479 50.4146C60.8598 59.1439 54.2138 65.1012 45.2085 68.2864C36.6314 71.0137 28.2535 70.4854 20.0748 66.7024C12.8808 63.0984 7.48546 57.6233 3.88866 50.2769C-0.126773 41.3748 -0.573617 32.2839 2.54819 23.0044C6.40029 12.802 13.3149 5.78892 23.2919 1.96457C26.6043 0.799291 30.0002 0.145026 33.4794 0.00177622Z" fill="#8E1C6A"/>
<path opacity="0.992" fill-rule="evenodd" clip-rule="evenodd" d="M271.345 16.8749C276.264 16.8019 280.096 18.8453 282.84 23.0044C284.667 26.1841 285.181 29.5821 284.381 33.1971C283.731 35.7687 282.447 37.9381 280.527 39.7054C279.568 40.4622 278.518 41.0593 277.377 41.496C278.74 42.2535 280.103 43.0111 281.466 43.7687C283.059 44.9808 283.361 46.4615 282.37 48.2108C281.352 49.3878 280.112 49.7439 278.651 49.2783C275.132 47.0455 271.625 44.7962 268.128 42.529C266.958 41.6737 266.5 40.5146 266.754 39.0511C267.1 37.6854 267.938 36.8245 269.267 36.4685C270.318 36.4457 271.367 36.4223 272.417 36.3996C275.321 36.0332 277.209 34.4148 278.081 31.5443C278.645 28.078 277.405 25.5643 274.361 24.003C271.136 22.9355 268.556 23.8191 266.62 26.6545C266.09 27.567 265.8 28.5546 265.749 29.6159C265.726 35.3548 265.704 41.0945 265.682 46.8334C265.241 48.4911 264.179 49.3864 262.498 49.5193C260.821 49.3912 259.76 48.4959 259.314 46.8334C259.269 40.7956 259.269 34.7584 259.314 28.7206C259.847 24.2144 262.003 20.8053 265.782 18.4934C267.527 17.5244 269.381 16.9844 271.345 16.8749Z" fill="#8E1C6A"/>
<path opacity="0.991" fill-rule="evenodd" clip-rule="evenodd" d="M136.896 16.9438C138.891 16.7345 140.175 17.6071 140.75 19.5609C140.772 21.2599 140.795 22.9583 140.817 24.6573C144.028 22.8295 147.413 22.4052 150.971 23.3832C155.332 24.8577 158.248 27.8301 159.718 32.3019C161.222 38.8934 159.245 44.0476 153.786 47.7632C149.452 50.1013 145.117 50.1013 140.784 47.7632C137.884 45.9546 135.907 43.3954 134.852 40.0842C134.609 39.2047 134.453 38.3094 134.383 37.3982C134.338 31.4754 134.338 25.5526 134.383 19.6298C134.711 18.2248 135.549 17.3295 136.896 16.9438ZM146.481 29.5471C149.708 29.3969 151.999 30.8205 153.351 33.817C154.353 37.2681 153.404 39.9884 150.502 41.9781C148.112 43.2191 145.789 43.1041 143.532 41.6337C140.838 39.3431 140.156 36.5305 141.487 33.1972C142.599 31.1745 144.264 29.9575 146.481 29.5471Z" fill="#0C0E27"/>
<path opacity="0.981" fill-rule="evenodd" clip-rule="evenodd" d="M164.912 16.9438C166.879 16.7303 168.164 17.5795 168.766 19.492C169.041 21.5725 168.204 22.9155 166.253 23.5209C164.37 23.7537 163.107 22.9617 162.466 21.1449C162.119 19.0099 162.934 17.6098 164.912 16.9438Z" fill="#0C0E27"/>
<path opacity="0.99" fill-rule="evenodd" clip-rule="evenodd" d="M174.228 16.9438C176.309 16.7544 177.594 17.6952 178.082 19.7675C178.104 21.3976 178.127 23.0271 178.149 24.6572C180.809 23.098 183.657 22.5581 186.695 23.0388C191.395 23.9789 194.713 26.6992 196.648 31.1999C198.008 35.111 197.785 38.9223 195.977 42.6323C192.44 48.3678 187.424 50.4911 180.931 49.0028C177.561 47.8864 174.981 45.7631 173.189 42.6323C172.248 40.8499 171.734 38.945 171.648 36.9161C171.603 31.246 171.603 25.5753 171.648 19.9052C171.864 18.3177 172.724 17.3308 174.228 16.9438ZM183.813 29.547C187.001 29.3941 189.268 30.7949 190.615 33.7481C191.645 37.164 190.74 39.8844 187.901 41.9092C185.536 43.206 183.213 43.1371 180.931 41.7026C178.227 39.5084 177.478 36.7425 178.685 33.4037C179.783 31.2508 181.492 29.965 183.813 29.547Z" fill="#0C0E27"/>
<path opacity="0.989" fill-rule="evenodd" clip-rule="evenodd" d="M241.184 16.9438C246.705 16.596 251.273 18.5471 254.891 22.7978C255.653 23.742 256.279 24.775 256.767 25.8969C257.182 28.0643 256.367 29.4761 254.321 30.1324C253.053 30.3494 251.992 29.9706 251.137 28.9961C249.18 25.3205 246.152 23.5188 242.056 23.5898C238.217 24.0002 235.502 26.0085 233.912 29.6159C232.467 34.0883 233.484 37.8417 236.962 40.8762C239.77 42.934 242.808 43.3699 246.077 42.1847C248.343 41.1881 250.052 39.5697 251.204 37.3293C252.215 36.286 253.41 35.976 254.79 36.3996C256.119 36.9967 256.834 38.0415 256.935 39.5332C256.896 40.06 256.773 40.5649 256.566 41.0483C254.351 45.0173 251.101 47.6461 246.814 48.9339C239.7 50.5613 233.947 48.4147 229.556 42.4946C227.158 38.7846 226.309 34.7212 227.009 30.3046C228.022 25.1793 230.737 21.3336 235.152 18.7689C237.055 17.7524 239.065 17.1442 241.184 16.9438Z" fill="#8E1C6A"/>
<path opacity="0.992" fill-rule="evenodd" clip-rule="evenodd" d="M296.747 16.9438C300.384 16.6208 303.489 17.7682 306.063 20.3873C308.82 17.6029 312.127 16.4892 315.983 17.0471C319.974 17.8067 322.844 20.0677 324.595 23.8308C325.075 25.0229 325.365 26.2626 325.466 27.5498C325.511 33.9319 325.511 40.3134 325.466 46.6956C325.088 48.4511 324.026 49.3692 322.283 49.4504C320.568 49.3754 319.506 48.4801 319.099 46.7645C319.077 40.5435 319.054 34.3218 319.032 28.1007C318.759 26.1675 317.765 24.7784 316.05 23.9341C313.507 23.0829 311.485 23.7833 309.984 26.0346C309.573 26.7584 309.35 27.5387 309.314 28.3762C309.292 34.5518 309.269 40.7267 309.247 46.9022C308.631 48.8664 307.324 49.7039 305.326 49.416C304.005 49.0227 303.189 48.1385 302.879 46.7645C302.878 40.3575 302.834 33.9526 302.745 27.5498C302.292 25.6861 301.186 24.4348 299.428 23.7963C297.024 23.1896 295.136 23.9355 293.764 26.0346C293.52 26.4905 293.341 26.9726 293.228 27.4809C293.14 33.861 293.095 40.2425 293.094 46.6268C292.731 48.4222 291.659 49.3864 289.877 49.5193C288.063 49.3774 286.991 48.3905 286.66 46.5579C286.615 40.3134 286.615 34.0697 286.66 27.8252C287.122 23.0815 289.457 19.7186 293.664 17.7358C294.668 17.3398 295.696 17.076 296.747 16.9438Z" fill="#8E1C6A"/>
<path opacity="0.998" fill-rule="evenodd" clip-rule="evenodd" d="M34.6188 22.3157C34.6188 30.7867 34.6188 39.2577 34.6188 47.7287C34.0457 47.7432 33.4871 47.697 32.9432 47.591C32.9432 39.1888 32.9432 30.7867 32.9432 22.3845C33.4998 22.3274 34.0583 22.304 34.6188 22.3157Z" fill="#BE2977"/>
<path opacity="0.999" fill-rule="evenodd" clip-rule="evenodd" d="M34.6188 22.3157C34.7751 22.3157 34.9316 22.3157 35.0879 22.3157C35.0879 30.7867 35.0879 39.2577 35.0879 47.7287C34.9316 47.7287 34.7751 47.7287 34.6188 47.7287C34.6188 39.2577 34.6188 30.7867 34.6188 22.3157Z" fill="#BA2777"/>
<path opacity="0.998" fill-rule="evenodd" clip-rule="evenodd" d="M35.088 22.3157C35.4692 22.3177 35.849 22.3412 36.2273 22.3845C36.2273 30.7867 36.2273 39.1888 36.2273 47.591C35.8531 47.6592 35.4733 47.7053 35.088 47.7287C35.088 39.2577 35.088 30.7867 35.088 22.3157Z" fill="#B72675"/>
<path opacity="0.998" fill-rule="evenodd" clip-rule="evenodd" d="M32.9432 22.3846C32.9432 30.7867 32.9432 39.1888 32.9432 47.591C32.5822 47.5717 32.2248 47.5262 31.8708 47.4532C31.8708 39.1661 31.8708 30.8783 31.8708 22.5912C32.2252 22.5078 32.5826 22.439 32.9432 22.3846Z" fill="#C32A79"/>
<path opacity="0.998" fill-rule="evenodd" clip-rule="evenodd" d="M36.2274 22.3846C36.3174 22.4073 36.4076 22.4307 36.4977 22.4534C36.4977 30.8328 36.4977 39.2116 36.4977 47.591C36.4076 47.591 36.3174 47.591 36.2274 47.591C36.2274 39.1888 36.2274 30.7867 36.2274 22.3846Z" fill="#B42674"/>
<path opacity="0.997" fill-rule="evenodd" clip-rule="evenodd" d="M36.4954 22.4534C37.0777 22.5223 37.6363 22.66 38.171 22.8666C38.171 30.9706 38.171 39.0738 38.171 47.1777C37.6212 47.3478 37.0627 47.4856 36.4954 47.591C36.4954 39.2115 36.4954 30.8328 36.4954 22.4534Z" fill="#B12474"/>
<path opacity="0.997" fill-rule="evenodd" clip-rule="evenodd" d="M31.8708 22.5912C31.8708 30.8783 31.8708 39.1661 31.8708 47.4532C31.6609 47.394 31.4599 47.3251 31.2676 47.2466C31.2676 39.0738 31.2676 30.9017 31.2676 22.7289C31.4661 22.6724 31.6672 22.6263 31.8708 22.5912Z" fill="#C62C7A"/>
<path opacity="0.997" fill-rule="evenodd" clip-rule="evenodd" d="M31.2676 22.7289C31.2676 30.9017 31.2676 39.0738 31.2676 47.2466C30.6034 47.1109 29.9778 46.8816 29.391 46.5579C29.391 38.8445 29.391 31.131 29.391 23.4176C30.0013 23.1476 30.6268 22.9176 31.2676 22.7289Z" fill="#CA2D7B"/>
<path opacity="0.997" fill-rule="evenodd" clip-rule="evenodd" d="M38.171 22.8666C38.7508 23.0154 39.3093 23.222 39.8466 23.4865C39.8466 31.1538 39.8466 38.8218 39.8466 46.489C39.3152 46.7728 38.7567 47.0028 38.171 47.1777C38.171 39.0738 38.171 30.9706 38.171 22.8666Z" fill="#AB2272"/>
<path opacity="0.989" fill-rule="evenodd" clip-rule="evenodd" d="M82.0713 22.8666C87.8802 22.8549 93.6885 22.8666 99.4974 22.901C102.082 23.284 103.657 24.7874 104.222 27.412C104.499 29.7474 103.684 31.5497 101.776 32.8183C97.5316 36.1468 93.2863 39.476 89.0417 42.8045C93.4874 42.8272 97.9337 42.8506 102.379 42.8734C104.328 43.3981 105.21 44.695 105.027 46.7645C104.642 48.3768 103.648 49.2831 102.044 49.4849C96.3251 49.531 90.6054 49.531 84.8863 49.4849C82.6718 49.2748 81.1417 48.1157 80.2952 46.0069C79.7288 44.2487 79.9299 42.5958 80.8984 41.0483C81.1551 40.6922 81.4567 40.3823 81.8032 40.1186C86.2609 36.6227 90.7073 33.1103 95.1408 29.5814C90.7622 29.5587 86.3829 29.5353 82.0043 29.5126C80.4674 29.2653 79.5405 28.3583 79.2228 26.7922C79.068 24.6283 80.0177 23.3198 82.0713 22.8666Z" fill="#0C0E27"/>
<path opacity="0.99" fill-rule="evenodd" clip-rule="evenodd" d="M118.331 22.8666C124.171 22.8411 128.382 25.5036 130.965 30.8555C131.564 32.3321 131.899 33.87 131.97 35.4698C132.015 39.1661 132.015 42.8616 131.97 46.5579C131.635 48.3843 130.563 49.3712 128.753 49.5193C127.362 49.511 126.368 48.8685 125.77 47.5909C122.498 49.5124 119.035 49.9828 115.382 49.0028C112.143 47.947 109.63 45.9388 107.842 42.9767C106.139 39.8362 105.669 36.5077 106.434 32.9905C107.567 28.819 110.036 25.8005 113.84 23.9341C115.289 23.3267 116.786 22.9706 118.331 22.8666ZM118.264 29.547C121.457 29.3907 123.725 30.7908 125.067 33.7481C126.109 37.0993 125.249 39.7969 122.486 41.8403C120.09 43.2115 117.722 43.166 115.382 41.7026C112.796 39.6303 112.003 36.9788 113.002 33.7481C114.029 31.3727 115.782 29.9719 118.264 29.547Z" fill="#0C0E27"/>
<path opacity="0.992" fill-rule="evenodd" clip-rule="evenodd" d="M202.043 22.8666C203.916 22.8129 205.111 23.7082 205.629 25.5526C205.651 29.2254 205.674 32.8989 205.696 36.5718C205.953 39.3155 207.304 41.2549 209.751 42.3913C213.37 43.4939 216.129 42.3803 218.028 39.0511C218.43 38.1558 218.631 37.215 218.631 36.2274C218.653 32.6462 218.676 29.0649 218.698 25.4837C219.431 23.2881 220.894 22.4961 223.088 23.1077C224.168 23.5967 224.827 24.4348 225.065 25.6214C225.11 29.5243 225.11 33.4265 225.065 37.3293C224.851 40.1785 223.846 42.6805 222.049 44.8362C218.852 48.5152 214.864 50.0186 210.086 49.3472C207.71 48.9525 205.611 47.9656 203.786 46.3857C201.735 44.5531 200.338 42.2921 199.597 39.602C199.479 39.1027 199.389 38.5972 199.329 38.0869C199.219 33.9106 199.196 29.7323 199.261 25.5526C199.663 24.0725 200.59 23.1772 202.043 22.8666Z" fill="#0C0E27"/>
<path opacity="0.996" fill-rule="evenodd" clip-rule="evenodd" d="M29.391 23.4176C29.391 31.131 29.391 38.8445 29.391 46.5579C28.7362 46.2955 28.133 45.9512 27.5814 45.5249C27.5814 38.5229 27.5814 31.5215 27.5814 24.5195C28.149 24.1015 28.7522 23.7337 29.391 23.4176Z" fill="#D12F7D"/>
<path opacity="0.997" fill-rule="evenodd" clip-rule="evenodd" d="M39.8466 23.4865C40.1836 23.6366 40.4963 23.8198 40.7849 24.0374C40.7849 31.3604 40.7849 38.684 40.7849 46.0069C40.4911 46.2039 40.1783 46.3644 39.8466 46.489C39.8466 38.8217 39.8466 31.1537 39.8466 23.4865Z" fill="#A62071"/>
<path opacity="0.996" fill-rule="evenodd" clip-rule="evenodd" d="M40.7849 24.0374C40.9178 24.1042 41.0519 24.1731 41.187 24.244C41.187 31.4065 41.187 38.569 41.187 45.7315C41.0728 45.8479 40.9387 45.9401 40.7849 46.0069C40.7849 38.684 40.7849 31.3604 40.7849 24.0374Z" fill="#A42070"/>
<path opacity="0.995" fill-rule="evenodd" clip-rule="evenodd" d="M41.1871 24.244C41.3211 24.3356 41.4552 24.4279 41.5892 24.5195C41.5892 31.4981 41.5892 38.4774 41.5892 45.456C41.4788 45.582 41.3448 45.6736 41.1871 45.7315C41.1871 38.569 41.1871 31.4065 41.1871 24.244Z" fill="#A31F70"/>
<path opacity="0.996" fill-rule="evenodd" clip-rule="evenodd" d="M27.5813 24.5195C27.5813 31.5215 27.5813 38.5228 27.5813 45.5249C27.4547 45.4491 27.3431 45.3568 27.2462 45.2494C27.2462 38.4085 27.2462 31.567 27.2462 24.7261C27.3415 24.6283 27.4533 24.5594 27.5813 24.5195Z" fill="#D5317E"/>
<path opacity="0.995" fill-rule="evenodd" clip-rule="evenodd" d="M41.5892 24.5195C42.1528 24.9465 42.689 25.4059 43.1978 25.8969C43.1978 31.9575 43.1978 38.018 43.1978 44.0786C42.722 44.6137 42.1858 45.0724 41.5892 45.456C41.5892 38.4774 41.5892 31.4981 41.5892 24.5195Z" fill="#9F1D6E"/>
<path opacity="0.995" fill-rule="evenodd" clip-rule="evenodd" d="M27.2462 24.7261C27.2462 31.567 27.2462 38.4085 27.2462 45.2494C26.9703 45.0724 26.7022 44.8775 26.4419 44.664C26.2718 44.5008 26.1154 44.3286 25.9728 44.1475C25.9728 38.0408 25.9728 31.9348 25.9728 25.8281C26.3573 25.4121 26.7818 25.045 27.2462 24.7261Z" fill="#D8327F"/>
<path opacity="0.988" fill-rule="evenodd" clip-rule="evenodd" d="M165.381 25.1393C166.998 25.1607 168.104 25.941 168.699 27.4809C168.765 27.7523 168.81 28.0278 168.833 28.3074C168.899 34.507 168.876 40.7053 168.766 46.9023C168.314 48.5249 167.264 49.3967 165.616 49.5193C163.861 49.3919 162.789 48.4505 162.399 46.6957C162.354 40.4512 162.354 34.2075 162.399 27.963C162.767 26.3101 163.761 25.3694 165.381 25.1393Z" fill="#0C0E27"/>
<path opacity="0.993" fill-rule="evenodd" clip-rule="evenodd" d="M25.9728 25.828C25.9728 31.9347 25.9728 38.0408 25.9728 44.1475C25.3137 43.5393 24.7551 42.8506 24.2972 42.0814C24.2972 37.3521 24.2972 32.6234 24.2972 27.8941C24.7606 27.1262 25.3191 26.4375 25.9728 25.828Z" fill="#DD3480"/>
<path opacity="0.993" fill-rule="evenodd" clip-rule="evenodd" d="M43.1978 25.8969C43.9732 26.6469 44.6207 27.4968 45.1414 28.4451C45.1414 32.8301 45.1414 37.2143 45.1414 41.5993C44.6213 42.529 43.9739 43.3555 43.1978 44.0786C43.1978 38.018 43.1978 31.9575 43.1978 25.8969Z" fill="#991B6C"/>
<path opacity="0.985" fill-rule="evenodd" clip-rule="evenodd" d="M24.2972 27.8941C24.2972 32.6234 24.2972 37.352 24.2972 42.0813C23.5309 41.0304 22.9948 39.8596 22.6887 38.569C22.6887 36.2046 22.6887 33.8397 22.6887 31.4753C23.0096 30.173 23.5458 28.9795 24.2972 27.8941Z" fill="#E33682"/>
<path opacity="0.983" fill-rule="evenodd" clip-rule="evenodd" d="M45.1414 28.4451C45.7694 29.4389 46.2165 30.5181 46.4819 31.682C46.4819 33.8858 46.4819 36.0896 46.4819 38.2935C46.2178 39.4787 45.7708 40.5807 45.1414 41.5992C45.1414 37.2143 45.1414 32.83 45.1414 28.4451Z" fill="#93196B"/>
<path opacity="0.957" fill-rule="evenodd" clip-rule="evenodd" d="M22.6886 31.4753C22.6886 33.8396 22.6886 36.2046 22.6886 38.569C22.5048 38.0648 22.3931 37.5366 22.3535 36.9849C22.3535 35.6537 22.3535 34.3217 22.3535 32.9905C22.3982 32.4616 22.5099 31.9567 22.6886 31.4753Z" fill="#E73784"/>
<path opacity="0.958" fill-rule="evenodd" clip-rule="evenodd" d="M46.4819 31.6819C46.573 31.8479 46.6203 32.0311 46.6253 32.2329C46.6253 34.0697 46.6253 35.9057 46.6253 37.7425C46.6404 37.9491 46.5923 38.1323 46.4819 38.2935C46.4819 36.0896 46.4819 33.8858 46.4819 31.6819Z" fill="#8F1969"/>
<path opacity="0.927" fill-rule="evenodd" clip-rule="evenodd" d="M46.616 32.2329C46.7478 32.6503 46.8153 33.0862 46.8187 33.5414C46.8187 34.5283 46.8187 35.5159 46.8187 36.5029C46.8079 36.9347 46.7403 37.3479 46.616 37.7425C46.616 35.9057 46.616 34.0697 46.616 32.2329Z" fill="#8F1869"/>
<path opacity="0.767" fill-rule="evenodd" clip-rule="evenodd" d="M22.3552 32.9905C22.3552 34.3218 22.3552 35.6537 22.3552 36.985C22.0875 35.6537 22.0875 34.3225 22.3552 32.9905Z" fill="#E73883"/>
<path opacity="0.642" fill-rule="evenodd" clip-rule="evenodd" d="M46.817 33.5414C47.0085 34.5284 47.0085 35.5159 46.817 36.5029C46.817 35.5159 46.817 34.5284 46.817 33.5414Z" fill="#8E1869"/>
</svg>
