<svg width="241" height="175" viewBox="0 0 241 175" fill="none" xmlns="http://www.w3.org/2000/svg">
<path d="M239.7 131.504L239.399 133.468L239.087 133.398C236.952 143.111 232.034 152.038 224.902 159.145C217.771 166.253 208.716 171.25 198.787 173.559C188.858 175.868 178.459 175.395 168.795 172.193C159.131 168.992 150.595 163.194 144.177 155.47C137.758 147.745 133.719 138.411 132.526 128.546C131.333 118.681 133.035 108.689 137.435 99.7262C141.835 90.7632 148.754 83.1956 157.39 77.899C166.027 72.6024 176.028 69.7933 186.237 69.7966C188.916 69.7966 191.487 70.194 194.046 70.5564C193.217 67.8445 192.364 65.0858 190.995 62.6077C189.625 59.0074 187.486 55.8864 185.36 52.742C183.582 49.3404 180.446 47.0376 178.139 44.127C175.725 41.2982 172.433 39.4162 169.826 37.0667C167.267 34.6119 163.915 33.3845 161.248 31.6545C158.46 30.0999 156.033 28.3815 153.438 27.5633L146.963 24.9683L141.268 22.6655L147.083 -4.82798e-06L154.255 1.68327C156.55 2.24435 159.349 2.89894 162.533 3.68212C165.789 4.26658 169.261 5.86802 173.13 7.32917C176.938 9.00074 181.371 10.1112 185.48 12.788C189.613 15.3363 194.383 17.4638 198.587 20.877C202.66 24.3955 207.574 27.4464 211.202 31.9117C215.167 36.0965 219.084 40.4916 222.123 45.4946C225.643 50.2638 228.034 55.5006 230.557 60.679C232.84 65.8573 234.678 71.1526 236.18 76.2958C239.027 86.6058 240.3 96.4014 240.793 104.783C241.202 113.175 240.961 120.154 240.457 125.204C240.288 127.313 240.035 129.414 239.7 131.504ZM107.545 131.504L107.244 133.468L106.932 133.398C104.797 143.111 99.8791 152.038 92.7472 159.145C85.6153 166.253 76.5609 171.25 66.6316 173.559C56.7023 175.868 46.304 175.395 36.6397 172.193C26.9754 168.992 18.4403 163.194 12.0217 155.47C5.60321 147.745 1.56367 138.411 0.370528 128.546C-0.822616 118.681 0.879394 108.689 5.27963 99.7262C9.67986 90.7632 16.5985 83.1956 25.2349 77.899C33.8714 72.6024 43.8727 69.7933 54.0817 69.7966C56.7609 69.7966 59.3319 70.194 61.8909 70.5564C61.0619 67.8445 60.2089 65.0858 58.8393 62.6077C57.4697 59.0074 55.3312 55.8864 53.2047 52.742C51.4266 49.3404 48.2909 47.0376 45.9842 44.127C43.5694 41.2982 40.2775 39.4162 37.6704 37.0667C35.1114 34.6119 31.7595 33.3845 29.0924 31.6545C26.3051 30.0999 23.8782 28.3815 21.2832 27.5633L14.8076 24.9683C11.1913 23.5305 9.12491 22.6889 9.12491 22.6889L14.9397 0.0233869L22.1122 1.70663C24.4069 2.26771 27.2061 2.92233 30.3899 3.70552C33.6457 4.28997 37.1178 5.89141 40.9863 7.35256C44.7948 9.02413 49.228 10.1346 53.3368 12.8114C57.4697 15.3597 62.2393 17.4871 66.4442 20.9004C70.517 24.4189 75.4308 27.4698 79.0591 31.9351C83.0237 36.1198 86.9403 40.515 89.9799 45.518C93.5 50.2872 95.8908 55.524 98.4138 60.7024C100.696 65.8807 102.535 71.1759 104.036 76.3192C106.884 86.6291 108.157 96.4248 108.65 104.806C109.058 113.199 108.818 120.177 108.313 125.227C108.134 127.328 107.878 129.421 107.545 131.504Z" fill="#F5F7FA"/>
</svg>
