<svg width="44" height="44" viewBox="0 0 44 44" fill="none" xmlns="http://www.w3.org/2000/svg">
<path d="M12.7233 9.16655C12.7229 10.139 12.3361 11.0714 11.6481 11.7587C10.9601 12.446 10.0273 12.8319 9.05485 12.8314C8.08239 12.8309 7.14995 12.4441 6.46266 11.7561C5.77537 11.0682 5.38953 10.1353 5.39002 9.16288C5.3905 8.19042 5.77728 7.25798 6.46525 6.57069C7.15323 5.8834 8.08605 5.49756 9.05852 5.49805C10.031 5.49853 10.9634 5.88531 11.6507 6.57329C12.338 7.26126 12.7238 8.19409 12.7233 9.16655ZM12.8333 15.5465H5.50002V38.4999H12.8333V15.5465ZM24.42 15.5465H17.1233V38.4999H24.3467V26.4549C24.3467 19.7449 33.0917 19.1215 33.0917 26.4549V38.4999H40.3333V23.9615C40.3333 12.6499 27.39 13.0715 24.3467 18.6265L24.42 15.5465Z" fill="white"/>
</svg>
