<svg width="69" height="54" viewBox="0 0 69 54" fill="none" xmlns="http://www.w3.org/2000/svg">
<path d="M12.3522 4.792C13.9949 2.56266 15.8135 1.33066 17.8082 1.09599C19.8029 0.861327 21.5042 1.27199 22.9122 2.328C24.4375 3.26666 25.2589 4.73333 25.3762 6.72799C25.6109 8.72266 24.7895 10.8347 22.9122 13.064C20.2135 16.232 18.3949 19.4 17.4562 22.568C16.5175 25.736 16.0482 28.552 16.0482 31.016L15.3442 23.976C20.0375 23.976 23.8509 25.3253 26.7842 28.024C29.7175 30.7227 31.1842 34.36 31.1842 38.936C31.1842 43.2773 29.8349 46.856 27.1362 49.672C24.4375 52.3707 20.7415 53.72 16.0482 53.72C11.2375 53.72 7.48285 52.136 4.78419 48.968C2.08552 45.6827 0.736188 41.1653 0.736188 35.416C0.736188 32.3653 1.02952 29.256 1.61619 26.088C2.20285 22.8027 3.31752 19.4587 4.96019 16.056C6.72019 12.536 9.18419 8.78133 12.3522 4.792ZM49.6642 4.792C51.3069 2.56266 53.1255 1.33066 55.1202 1.09599C57.1149 0.861327 58.8162 1.27199 60.2242 2.328C61.7495 3.26666 62.5709 4.73333 62.6882 6.72799C62.9229 8.72266 62.1015 10.8347 60.2242 13.064C57.5255 16.232 55.7069 19.4 54.7682 22.568C53.8295 25.736 53.3602 28.552 53.3602 31.016L52.6562 23.976C57.3495 23.976 61.1629 25.3253 64.0962 28.024C67.0295 30.7227 68.4962 34.36 68.4962 38.936C68.4962 43.2773 67.1469 46.856 64.4482 49.672C61.7495 52.3707 58.0535 53.72 53.3602 53.72C48.5495 53.72 44.7949 52.136 42.0962 48.968C39.3975 45.6827 38.0482 41.1653 38.0482 35.416C38.0482 32.3653 38.3415 29.256 38.9282 26.088C39.5149 22.8027 40.6295 19.4587 42.2722 16.056C44.0322 12.536 46.4962 8.78133 49.6642 4.792Z" fill="white"/>
</svg>
