<svg width="130" height="28" viewBox="0 0 130 28" fill="none" xmlns="http://www.w3.org/2000/svg">
<path opacity="0.993" fill-rule="evenodd" clip-rule="evenodd" d="M13.1918 0.000710488C17.2971 -0.0373058 20.7689 1.45029 23.6072 4.46349C24.3801 5.32657 25.0415 6.27257 25.5911 7.30093C25.7383 7.57586 25.8635 7.86043 25.9664 8.15492C26.1629 9.09513 25.8905 9.8527 25.1487 10.4276C24.3839 10.8926 23.6243 10.8836 22.8699 10.4001C22.7233 10.2769 22.585 10.1439 22.4544 10.0006C22.1619 9.44527 21.849 8.9034 21.5161 8.37531C19.5694 5.64612 16.9376 4.23208 13.6207 4.13291C10.6692 4.19655 8.22508 5.36265 6.28838 7.63151C4.36374 10.0599 3.66669 12.8238 4.19725 15.9235C4.92311 19.2033 6.75955 21.5678 9.70656 23.0171C12.1478 24.092 14.6143 24.1562 17.1059 23.2099C19.5107 22.1926 21.2756 20.4802 22.4008 18.0722C22.9726 17.354 23.701 17.1017 24.5857 17.3146C25.6683 17.7345 26.1375 18.538 25.9932 19.7251C25.9648 19.8774 25.92 20.0243 25.8592 20.1659C24.1439 23.6576 21.4855 26.0405 17.8834 27.3146C14.4526 28.4055 11.1014 28.1942 7.82991 26.681C4.95233 25.2394 2.79418 23.0493 1.35546 20.1108C-0.250709 16.5499 -0.429447 12.9136 0.819277 9.20175C2.36012 5.12078 5.12595 2.31557 9.11676 0.785829C10.4417 0.319716 11.8001 0.0580103 13.1918 0.000710488Z" fill="#8E1C6A"/>
<path opacity="0.992" fill-rule="evenodd" clip-rule="evenodd" d="M108.338 6.74998C110.305 6.72078 111.838 7.53813 112.936 9.20175C113.667 10.4736 113.872 11.8329 113.552 13.2789C113.292 14.3075 112.779 15.1753 112.011 15.8821C111.627 16.1849 111.207 16.4237 110.751 16.5984C111.296 16.9014 111.841 17.2044 112.386 17.5075C113.024 17.9923 113.144 18.5846 112.748 19.2843C112.341 19.7551 111.845 19.8975 111.26 19.7113C109.853 18.8182 108.45 17.9185 107.051 17.0116C106.583 16.6695 106.4 16.2058 106.502 15.6204C106.64 15.0742 106.975 14.7298 107.507 14.5874C107.927 14.5783 108.347 14.5689 108.767 14.5598C109.928 14.4133 110.683 13.7659 111.032 12.6177C111.258 11.2312 110.762 10.2257 109.544 9.6012C108.254 9.1742 107.222 9.52764 106.448 10.6618C106.236 11.0268 106.12 11.4218 106.099 11.8464C106.091 14.1419 106.081 16.4378 106.073 18.7334C105.896 19.3964 105.471 19.7546 104.799 19.8077C104.128 19.7565 103.704 19.3984 103.526 18.7334C103.508 16.3182 103.508 13.9034 103.526 11.4882C103.739 9.68577 104.601 8.32214 106.113 7.39736C106.811 7.00975 107.552 6.79378 108.338 6.74998Z" fill="#8E1C6A"/>
<path opacity="0.991" fill-rule="evenodd" clip-rule="evenodd" d="M54.5586 6.77753C55.3565 6.69378 55.8701 7.04281 56.1002 7.82435C56.109 8.50396 56.1181 9.1833 56.127 9.8629C57.4114 9.13178 58.7653 8.96208 60.1886 9.35327C61.9331 9.94307 63.0993 11.132 63.6872 12.9207C64.2891 15.5574 63.4982 17.619 61.3146 19.1053C59.5808 20.0405 57.847 20.0405 56.1136 19.1053C54.9538 18.3819 54.1629 17.3582 53.7409 16.0337C53.6439 15.6819 53.5814 15.3237 53.5533 14.9593C53.5353 12.5902 53.5353 10.221 53.5533 7.8519C53.6846 7.28992 54.0197 6.9318 54.5586 6.77753ZM58.3923 11.8188C59.6835 11.7588 60.5996 12.3282 61.1403 13.5268C61.5414 14.9072 61.1617 15.9954 60.0009 16.7912C59.0449 17.2876 58.1157 17.2416 57.2127 16.6535C56.1353 15.7372 55.8626 14.6122 56.3951 13.2789C56.8398 12.4698 57.5058 11.983 58.3923 11.8188Z" fill="#0C0E27"/>
<path opacity="0.981" fill-rule="evenodd" clip-rule="evenodd" d="M65.7648 6.77752C66.5516 6.69212 67.0656 7.03178 67.3063 7.79679C67.4165 8.62902 67.0814 9.1662 66.301 9.40835C65.5479 9.50146 65.0428 9.18466 64.7862 8.45794C64.6474 7.60396 64.9734 7.04391 65.7648 6.77752Z" fill="#0C0E27"/>
<path opacity="0.99" fill-rule="evenodd" clip-rule="evenodd" d="M69.4914 6.77752C70.3239 6.70176 70.8378 7.07807 71.033 7.90699C71.0418 8.55905 71.0509 9.21083 71.0598 9.8629C72.1236 9.23921 73.263 9.02323 74.478 9.21552C76.3581 9.59155 77.6852 10.6797 78.4591 12.48C79.0034 14.0444 78.9141 15.5689 78.1911 17.0529C76.7761 19.3471 74.7699 20.1964 72.1724 19.6011C70.8247 19.1546 69.7925 18.3053 69.0759 17.0529C68.6992 16.34 68.4936 15.578 68.4593 14.7664C68.4413 12.4984 68.4413 10.2301 68.4593 7.96208C68.5456 7.3271 68.8896 6.93234 69.4914 6.77752ZM73.3252 11.8188C74.6005 11.7576 75.5074 12.318 76.0463 13.4992C76.4581 14.8656 76.0962 15.9538 74.9605 16.7637C74.0144 17.2824 73.0852 17.2549 72.1724 16.681C71.0909 15.8033 70.7914 14.697 71.2743 13.3615C71.7134 12.5003 72.397 11.986 73.3252 11.8188Z" fill="#0C0E27"/>
<path opacity="0.989" fill-rule="evenodd" clip-rule="evenodd" d="M96.2738 6.77753C98.4818 6.63841 100.309 7.41884 101.756 9.11911C102.061 9.49679 102.312 9.91001 102.507 10.3588C102.673 11.2257 102.347 11.7904 101.528 12.053C101.021 12.1397 100.597 11.9882 100.255 11.5984C99.4719 10.1282 98.2609 9.40753 96.6223 9.43591C95.0867 9.6001 94.0009 10.4034 93.365 11.8464C92.7867 13.6353 93.1934 15.1367 94.5848 16.3505C95.7079 17.1736 96.9234 17.348 98.2309 16.8739C99.1371 16.4753 99.8207 15.8279 100.282 14.9317C100.686 14.5144 101.164 14.3904 101.716 14.5598C102.248 14.7987 102.534 15.2166 102.574 15.8133C102.558 16.024 102.509 16.2259 102.427 16.4193C101.541 18.0069 100.24 19.0584 98.5258 19.5736C95.68 20.2245 93.379 19.3659 91.6224 16.9978C90.6632 15.5138 90.3238 13.8885 90.6037 12.1218C91.009 10.0717 92.0948 8.53344 93.861 7.50755C94.6218 7.10094 95.4261 6.85769 96.2738 6.77753Z" fill="#8E1C6A"/>
<path opacity="0.992" fill-rule="evenodd" clip-rule="evenodd" d="M118.499 6.77752C119.954 6.64832 121.196 7.10727 122.225 8.15492C123.328 7.04115 124.651 6.5957 126.193 6.81884C127.789 7.1227 128.938 8.0271 129.638 9.53232C129.83 10.0092 129.946 10.505 129.987 11.0199C130.004 13.5728 130.004 16.1254 129.987 18.6783C129.835 19.3805 129.41 19.7477 128.713 19.7802C128.027 19.7502 127.602 19.392 127.44 18.7058C127.431 16.2174 127.422 13.7287 127.413 11.2403C127.304 10.467 126.906 9.91138 126.22 9.57364C125.203 9.23315 124.394 9.51331 123.794 10.4139C123.629 10.7034 123.54 11.0155 123.525 11.3505C123.517 13.8207 123.507 16.2907 123.499 18.7609C123.252 19.5466 122.729 19.8816 121.93 19.7664C121.402 19.6091 121.076 19.2554 120.952 18.7058C120.951 16.143 120.934 13.5811 120.898 11.0199C120.717 10.2745 120.274 9.77392 119.571 9.51855C118.61 9.27585 117.854 9.57419 117.306 10.4139C117.208 10.5962 117.136 10.7891 117.091 10.9924C117.056 13.5444 117.038 16.097 117.038 18.6507C116.893 19.3689 116.464 19.7546 115.751 19.8077C115.025 19.751 114.596 19.3562 114.464 18.6232C114.446 16.1254 114.446 13.6279 114.464 11.1301C114.649 9.2326 115.583 7.88743 117.265 7.09432C117.667 6.93592 118.078 6.83041 118.499 6.77752Z" fill="#8E1C6A"/>
<path opacity="0.998" fill-rule="evenodd" clip-rule="evenodd" d="M13.6475 8.92627C13.6475 12.3147 13.6475 15.7031 13.6475 19.0915C13.4183 19.0973 13.1949 19.0788 12.9773 19.0364C12.9773 15.6755 12.9773 12.3147 12.9773 8.95382C13.1999 8.93095 13.4233 8.92158 13.6475 8.92627Z" fill="#BE2977"/>
<path opacity="0.999" fill-rule="evenodd" clip-rule="evenodd" d="M13.6475 8.92627C13.71 8.92627 13.7726 8.92627 13.8351 8.92627C13.8351 12.3147 13.8351 15.7031 13.8351 19.0915C13.7726 19.0915 13.71 19.0915 13.6475 19.0915C13.6475 15.7031 13.6475 12.3147 13.6475 8.92627Z" fill="#BA2777"/>
<path opacity="0.998" fill-rule="evenodd" clip-rule="evenodd" d="M13.8352 8.92627C13.9877 8.9271 14.1396 8.93646 14.291 8.95382C14.291 12.3147 14.291 15.6755 14.291 19.0364C14.1413 19.0637 13.9893 19.0821 13.8352 19.0915C13.8352 15.7031 13.8352 12.3147 13.8352 8.92627Z" fill="#B72675"/>
<path opacity="0.998" fill-rule="evenodd" clip-rule="evenodd" d="M12.9773 8.95381C12.9773 12.3147 12.9773 15.6755 12.9773 19.0364C12.8329 19.0287 12.6899 19.0105 12.5483 18.9813C12.5483 15.6664 12.5483 12.3513 12.5483 9.03646C12.6901 9.00312 12.8331 8.97557 12.9773 8.95381Z" fill="#C32A79"/>
<path opacity="0.998" fill-rule="evenodd" clip-rule="evenodd" d="M14.291 8.95381C14.3271 8.9629 14.3631 8.97227 14.3992 8.98136C14.3992 12.3331 14.3992 15.6846 14.3992 19.0364C14.3631 19.0364 14.3271 19.0364 14.291 19.0364C14.291 15.6755 14.291 12.3147 14.291 8.95381Z" fill="#B42674"/>
<path opacity="0.997" fill-rule="evenodd" clip-rule="evenodd" d="M14.3982 8.98136C14.6311 9.00891 14.8545 9.06401 15.0684 9.14665C15.0684 12.3882 15.0684 15.6295 15.0684 18.8711C14.8485 18.9391 14.6251 18.9942 14.3982 19.0364C14.3982 15.6846 14.3982 12.3331 14.3982 8.98136Z" fill="#B12474"/>
<path opacity="0.997" fill-rule="evenodd" clip-rule="evenodd" d="M12.5484 9.03646C12.5484 12.3513 12.5484 15.6664 12.5484 18.9813C12.4644 18.9576 12.384 18.9301 12.3071 18.8986C12.3071 15.6295 12.3071 12.3607 12.3071 9.09156C12.3865 9.06897 12.4669 9.05051 12.5484 9.03646Z" fill="#C62C7A"/>
<path opacity="0.997" fill-rule="evenodd" clip-rule="evenodd" d="M12.3071 9.09155C12.3071 12.3607 12.3071 15.6295 12.3071 18.8986C12.0414 18.8444 11.7911 18.7526 11.5564 18.6232C11.5564 15.5378 11.5564 12.4524 11.5564 9.36703C11.8005 9.25904 12.0507 9.16703 12.3071 9.09155Z" fill="#CA2D7B"/>
<path opacity="0.997" fill-rule="evenodd" clip-rule="evenodd" d="M15.0684 9.14665C15.3003 9.20616 15.5237 9.2888 15.7386 9.39458C15.7386 12.4615 15.7386 15.5287 15.7386 18.5956C15.526 18.7091 15.3026 18.8011 15.0684 18.8711C15.0684 15.6295 15.0684 12.3882 15.0684 9.14665Z" fill="#AB2272"/>
<path opacity="0.989" fill-rule="evenodd" clip-rule="evenodd" d="M32.6286 9.14665C34.9521 9.14197 37.2754 9.14665 39.599 9.16042C40.6328 9.31359 41.2628 9.91496 41.489 10.9648C41.5995 11.899 41.2735 12.6199 40.5105 13.1273C38.8127 14.4587 37.1146 15.7904 35.4167 17.1218C37.195 17.1309 38.9735 17.1403 40.7518 17.1493C41.5311 17.3593 41.8842 17.878 41.8108 18.7058C41.6569 19.3507 41.2593 19.7132 40.6177 19.794C38.3301 19.8124 36.0422 19.8124 33.7546 19.794C32.8688 19.7099 32.2567 19.2463 31.9181 18.4028C31.6916 17.6995 31.772 17.0383 32.1594 16.4193C32.2621 16.2769 32.3827 16.1529 32.5213 16.0474C34.3044 14.6491 36.083 13.2441 37.8564 11.8326C36.1049 11.8235 34.3532 11.8141 32.6018 11.805C31.987 11.7061 31.6163 11.3433 31.4892 10.7169C31.4272 9.85133 31.8071 9.32792 32.6286 9.14665Z" fill="#0C0E27"/>
<path opacity="0.99" fill-rule="evenodd" clip-rule="evenodd" d="M47.1323 9.14664C49.4682 9.13645 51.1526 10.2015 52.1858 12.3422C52.4255 12.9328 52.5596 13.548 52.588 14.1879C52.6059 15.6664 52.6059 17.1447 52.588 18.6232C52.4539 19.3537 52.025 19.7485 51.3011 19.8077C50.7446 19.8044 50.347 19.5474 50.1081 19.0364C48.7993 19.805 47.4141 19.9931 45.9527 19.6011C44.6573 19.1788 43.6519 18.3755 42.9366 17.1907C42.2554 15.9345 42.0677 14.6031 42.3736 13.1962C42.8267 11.5276 43.8144 10.3202 45.3361 9.57363C45.9157 9.33066 46.5143 9.18824 47.1323 9.14664ZM47.1055 11.8188C48.3829 11.7563 49.2899 12.3163 49.8266 13.4992C50.2435 14.8397 49.8995 15.9188 48.7945 16.7361C47.836 17.2846 46.8889 17.2664 45.9527 16.681C44.9184 15.8521 44.6012 14.7915 45.0009 13.4992C45.4114 12.5491 46.1127 11.9888 47.1055 11.8188Z" fill="#0C0E27"/>
<path opacity="0.992" fill-rule="evenodd" clip-rule="evenodd" d="M80.6173 9.14665C81.3663 9.12516 81.8446 9.48329 82.0516 10.221C82.0604 11.6902 82.0696 13.1596 82.0784 14.6287C82.1813 15.7262 82.7218 16.502 83.7004 16.9565C85.1481 17.3976 86.2518 16.9521 87.0113 15.6204C87.1722 15.2623 87.2526 14.886 87.2526 14.491C87.2614 13.0585 87.2706 11.626 87.2794 10.1935C87.5724 9.31524 88.1577 8.99844 89.0354 9.24307C89.4673 9.43866 89.7308 9.77392 89.8263 10.2486C89.8443 11.8097 89.8443 13.3706 89.8263 14.9317C89.7405 16.0714 89.3384 17.0722 88.6199 17.9345C87.3408 19.4061 85.7456 20.0075 83.8344 19.7389C82.8843 19.581 82.0443 19.1862 81.3143 18.5543C80.494 17.8212 79.9353 16.9168 79.6387 15.8408C79.5916 15.6411 79.5556 15.4389 79.5315 15.2348C79.4878 13.5642 79.4787 11.8929 79.5047 10.221C79.6653 9.62901 80.0361 9.27089 80.6173 9.14665Z" fill="#0C0E27"/>
<path opacity="0.996" fill-rule="evenodd" clip-rule="evenodd" d="M11.5564 9.36703C11.5564 12.4524 11.5564 15.5378 11.5564 18.6232C11.2944 18.5182 11.0532 18.3805 10.8325 18.2099C10.8325 15.4091 10.8325 12.6086 10.8325 9.8078C11.0596 9.64059 11.3009 9.49348 11.5564 9.36703Z" fill="#D12F7D"/>
<path opacity="0.997" fill-rule="evenodd" clip-rule="evenodd" d="M15.7385 9.39458C15.8733 9.45464 15.9984 9.52792 16.1139 9.61497C16.1139 12.5441 16.1139 15.4736 16.1139 18.4028C15.9964 18.4816 15.8712 18.5458 15.7385 18.5956C15.7385 15.5287 15.7385 12.4615 15.7385 9.39458Z" fill="#A62071"/>
<path opacity="0.996" fill-rule="evenodd" clip-rule="evenodd" d="M16.114 9.61497C16.1672 9.64169 16.2208 9.66924 16.2749 9.69761C16.2749 12.5626 16.2749 15.4276 16.2749 18.2926C16.2292 18.3391 16.1755 18.3761 16.114 18.4028C16.114 15.4736 16.114 12.5441 16.114 9.61497Z" fill="#A42070"/>
<path opacity="0.995" fill-rule="evenodd" clip-rule="evenodd" d="M16.2749 9.69762C16.3285 9.73426 16.3821 9.77117 16.4358 9.80781C16.4358 12.5992 16.4358 15.391 16.4358 18.1824C16.3916 18.2328 16.338 18.2695 16.2749 18.2926C16.2749 15.4276 16.2749 12.5626 16.2749 9.69762Z" fill="#A31F70"/>
<path opacity="0.996" fill-rule="evenodd" clip-rule="evenodd" d="M10.8325 9.8078C10.8325 12.6086 10.8325 15.4091 10.8325 18.2099C10.7819 18.1796 10.7372 18.1427 10.6985 18.0998C10.6985 15.3634 10.6985 12.6268 10.6985 9.89044C10.7366 9.85133 10.7813 9.82378 10.8325 9.8078Z" fill="#D5317E"/>
<path opacity="0.995" fill-rule="evenodd" clip-rule="evenodd" d="M16.4358 9.8078C16.6612 9.9786 16.8757 10.1623 17.0792 10.3588C17.0792 12.783 17.0792 15.2072 17.0792 17.6314C16.8889 17.8455 16.6744 18.029 16.4358 18.1824C16.4358 15.391 16.4358 12.5992 16.4358 9.8078Z" fill="#9F1D6E"/>
<path opacity="0.995" fill-rule="evenodd" clip-rule="evenodd" d="M10.6986 9.89045C10.6986 12.6268 10.6986 15.3634 10.6986 18.0998C10.5882 18.029 10.481 17.951 10.3769 17.8656C10.3088 17.8003 10.2463 17.7314 10.1892 17.659C10.1892 15.2163 10.1892 12.7739 10.1892 10.3312C10.343 10.1648 10.5128 10.018 10.6986 9.89045Z" fill="#D8327F"/>
<path opacity="0.988" fill-rule="evenodd" clip-rule="evenodd" d="M65.9526 10.0557C66.5992 10.0643 67.0416 10.3764 67.2796 10.9924C67.3062 11.1009 67.3241 11.2111 67.3333 11.3229C67.3595 13.8028 67.3507 16.2821 67.3064 18.7609C67.1258 19.4099 66.7057 19.7587 66.0464 19.8077C65.3445 19.7568 64.9156 19.3802 64.7596 18.6783C64.7416 16.1805 64.7416 13.683 64.7596 11.1852C64.9067 10.524 65.3046 10.1477 65.9526 10.0557Z" fill="#0C0E27"/>
<path opacity="0.993" fill-rule="evenodd" clip-rule="evenodd" d="M10.189 10.3312C10.189 12.7739 10.189 15.2163 10.189 17.659C9.92539 17.4157 9.70199 17.1403 9.5188 16.8325C9.5188 14.9408 9.5188 13.0494 9.5188 11.1577C9.70416 10.8505 9.92756 10.575 10.189 10.3312Z" fill="#DD3480"/>
<path opacity="0.993" fill-rule="evenodd" clip-rule="evenodd" d="M17.0791 10.3588C17.3893 10.6588 17.6483 10.9987 17.8566 11.378C17.8566 13.132 17.8566 14.8857 17.8566 16.6397C17.6485 17.0116 17.3896 17.3422 17.0791 17.6314C17.0791 15.2072 17.0791 12.783 17.0791 10.3588Z" fill="#991B6C"/>
<path opacity="0.985" fill-rule="evenodd" clip-rule="evenodd" d="M9.51891 11.1576C9.51891 13.0494 9.51891 14.9408 9.51891 16.8325C9.2124 16.4121 8.99793 15.9438 8.87549 15.4276C8.87549 14.4819 8.87549 13.5359 8.87549 12.5901C9.00388 12.0692 9.21835 11.5918 9.51891 11.1576Z" fill="#E33682"/>
<path opacity="0.983" fill-rule="evenodd" clip-rule="evenodd" d="M17.8567 11.378C18.1079 11.7755 18.2867 12.2072 18.3929 12.6728C18.3929 13.5543 18.3929 14.4359 18.3929 15.3174C18.2872 15.7915 18.1084 16.2323 17.8567 16.6397C17.8567 14.8857 17.8567 13.132 17.8567 11.378Z" fill="#93196B"/>
<path opacity="0.957" fill-rule="evenodd" clip-rule="evenodd" d="M8.8755 12.5901C8.8755 13.5359 8.8755 14.4819 8.8755 15.4276C8.80196 15.2259 8.75727 15.0146 8.74146 14.794C8.74146 14.2615 8.74146 13.7287 8.74146 13.1962C8.75931 12.9846 8.804 12.7827 8.8755 12.5901Z" fill="#E73784"/>
<path opacity="0.958" fill-rule="evenodd" clip-rule="evenodd" d="M18.3928 12.6728C18.4293 12.7392 18.4482 12.8125 18.4502 12.8932C18.4502 13.6279 18.4502 14.3623 18.4502 15.097C18.4562 15.1797 18.437 15.2529 18.3928 15.3174C18.3928 14.4359 18.3928 13.5543 18.3928 12.6728Z" fill="#8F1969"/>
<path opacity="0.927" fill-rule="evenodd" clip-rule="evenodd" d="M18.4463 12.8932C18.499 13.0601 18.526 13.2345 18.5274 13.4166C18.5274 13.8113 18.5274 14.2064 18.5274 14.6011C18.5231 14.7739 18.496 14.9392 18.4463 15.097C18.4463 14.3623 18.4463 13.6279 18.4463 12.8932Z" fill="#8F1869"/>
<path opacity="0.767" fill-rule="evenodd" clip-rule="evenodd" d="M8.74218 13.1962C8.74218 13.7287 8.74218 14.2615 8.74218 14.794C8.63509 14.2615 8.63509 13.729 8.74218 13.1962Z" fill="#E73883"/>
<path opacity="0.642" fill-rule="evenodd" clip-rule="evenodd" d="M18.5269 13.4166C18.6034 13.8113 18.6034 14.2064 18.5269 14.6011C18.5269 14.2064 18.5269 13.8113 18.5269 13.4166Z" fill="#8E1869"/>
</svg>
