<svg width="130" height="28" viewBox="0 0 130 28" fill="none" xmlns="http://www.w3.org/2000/svg">
<path opacity="0.993" fill-rule="evenodd" clip-rule="evenodd" d="M13.1918 0.000710488C17.2971 -0.0373058 20.7689 1.45029 23.6072 4.46349C24.3801 5.32657 25.0415 6.27257 25.5911 7.30093C25.7383 7.57586 25.8635 7.86043 25.9664 8.15492C26.1629 9.09513 25.8905 9.8527 25.1487 10.4276C24.3839 10.8926 23.6243 10.8836 22.8699 10.4001C22.7233 10.2769 22.585 10.1439 22.4544 10.0006C22.1619 9.44527 21.849 8.9034 21.5161 8.37531C19.5694 5.64612 16.9376 4.23208 13.6207 4.13291C10.6692 4.19655 8.22508 5.36265 6.28838 7.63151C4.36374 10.0599 3.66669 12.8238 4.19725 15.9235C4.92311 19.2033 6.75955 21.5678 9.70656 23.0171C12.1478 24.092 14.6143 24.1562 17.1059 23.2099C19.5107 22.1926 21.2756 20.4802 22.4008 18.0722C22.9726 17.354 23.701 17.1017 24.5857 17.3146C25.6683 17.7345 26.1375 18.538 25.9932 19.7251C25.9648 19.8774 25.92 20.0243 25.8592 20.1659C24.1439 23.6576 21.4855 26.0405 17.8834 27.3146C14.4526 28.4055 11.1014 28.1942 7.82991 26.681C4.95233 25.2394 2.79418 23.0493 1.35546 20.1108C-0.250709 16.5499 -0.429447 12.9136 0.819277 9.20175C2.36012 5.12078 5.12595 2.31557 9.11676 0.785829C10.4417 0.319716 11.8001 0.0580103 13.1918 0.000710488Z" fill="#8E1C6A"/>
<path opacity="0.992" fill-rule="evenodd" clip-rule="evenodd" d="M108.338 6.75002C110.306 6.72082 111.839 7.53817 112.936 9.2018C113.667 10.4737 113.873 11.8329 113.553 13.2789C113.293 14.3075 112.779 15.1753 112.011 15.8822C111.628 16.1849 111.208 16.4238 110.751 16.5984C111.296 16.9015 111.842 17.2045 112.387 17.5075C113.024 17.9924 113.145 18.5846 112.749 19.2844C112.341 19.7552 111.845 19.8976 111.261 19.7114C109.853 18.8183 108.45 17.9185 107.052 17.0117C106.584 16.6695 106.4 16.2059 106.502 15.6205C106.641 15.0742 106.976 14.7299 107.507 14.5874C107.927 14.5783 108.347 14.569 108.767 14.5599C109.929 14.4133 110.684 13.766 111.033 12.6177C111.259 11.2313 110.763 10.2258 109.545 9.60124C108.255 9.17425 107.223 9.52769 106.448 10.6618C106.237 11.0269 106.121 11.4219 106.1 11.8464C106.091 14.142 106.082 16.4378 106.073 18.7334C105.897 19.3965 105.472 19.7546 104.8 19.8078C104.129 19.7565 103.704 19.3984 103.526 18.7334C103.508 16.3183 103.508 13.9034 103.526 11.4883C103.739 9.68581 104.601 8.32219 106.113 7.3974C106.811 7.0098 107.553 6.79382 108.338 6.75002Z" fill="#8E1C6A"/>
<path opacity="0.991" fill-rule="evenodd" clip-rule="evenodd" d="M54.5589 6.77754C55.3567 6.69379 55.8704 7.04282 56.1004 7.82436C56.1092 8.50397 56.1184 9.1833 56.1272 9.86291C57.4116 9.13179 58.7655 8.96209 60.1888 9.35327C61.9333 9.94308 63.0995 11.132 63.6874 12.9207C64.2893 15.5574 63.4984 17.6191 61.3148 19.1053C59.581 20.0405 57.8473 20.0405 56.1138 19.1053C54.954 18.3819 54.1632 17.3582 53.7412 16.0337C53.6441 15.6819 53.5817 15.3238 53.5535 14.9593C53.5355 12.5902 53.5355 10.221 53.5535 7.85191C53.6849 7.28993 54.02 6.9318 54.5589 6.77754ZM58.3926 11.8188C59.6837 11.7588 60.5998 12.3282 61.1405 13.5268C61.5416 14.9072 61.162 15.9954 60.0012 16.7912C59.0451 17.2877 58.1159 17.2416 57.213 16.6535C56.1355 15.7372 55.8629 14.6122 56.3953 13.2789C56.8401 12.4698 57.506 11.983 58.3926 11.8188Z" fill="#FEFFFE"/>
<path opacity="0.981" fill-rule="evenodd" clip-rule="evenodd" d="M65.7645 6.77752C66.5514 6.69212 67.0653 7.03178 67.3061 7.79679C67.4163 8.62902 67.0811 9.1662 66.3007 9.40835C65.5476 9.50146 65.0426 9.18466 64.786 8.45794C64.6471 7.60396 64.9731 7.04391 65.7645 6.77752Z" fill="#FEFFFE"/>
<path opacity="0.99" fill-rule="evenodd" clip-rule="evenodd" d="M69.4909 6.77747C70.3234 6.70171 70.8373 7.07801 71.0325 7.90693C71.0413 8.559 71.0504 9.21078 71.0593 9.86284C72.1231 9.23916 73.2625 9.02318 74.4775 9.21546C76.3576 9.59149 77.6847 10.6796 78.4587 12.4799C79.0029 14.0444 78.9136 15.5689 78.1906 17.0529C76.7756 19.3471 74.7694 20.1964 72.1719 19.6011C70.8242 19.1545 69.792 18.3052 69.0754 17.0529C68.6987 16.3399 68.4931 15.578 68.4588 14.7664C68.4408 12.4984 68.4408 10.2301 68.4588 7.96203C68.5451 7.32705 68.8891 6.93229 69.4909 6.77747ZM73.3247 11.8188C74.6 11.7576 75.507 12.3179 76.0458 13.4992C76.4576 14.8656 76.0957 15.9537 74.96 16.7636C74.0139 17.2823 73.0847 17.2548 72.1719 16.681C71.0904 15.8033 70.7909 14.697 71.2738 13.3614C71.7129 12.5003 72.3965 11.986 73.3247 11.8188Z" fill="#FEFFFE"/>
<path opacity="0.989" fill-rule="evenodd" clip-rule="evenodd" d="M96.2738 6.7775C98.4818 6.63839 100.309 7.41882 101.756 9.11908C102.061 9.49677 102.312 9.90999 102.507 10.3587C102.673 11.2257 102.347 11.7904 101.528 12.0529C101.021 12.1397 100.597 11.9882 100.255 11.5984C99.4719 10.1282 98.2609 9.40751 96.6223 9.43589C95.0867 9.60007 94.0009 10.4034 93.365 11.8463C92.7867 13.6353 93.1934 15.1367 94.5848 16.3504C95.7079 17.1736 96.9234 17.3479 98.2309 16.8738C99.1371 16.4752 99.8207 15.8279 100.282 14.9317C100.686 14.5144 101.164 14.3904 101.716 14.5598C102.248 14.7987 102.534 15.2166 102.574 15.8132C102.558 16.024 102.509 16.2259 102.427 16.4193C101.541 18.0069 100.24 19.0584 98.5258 19.5736C95.68 20.2245 93.379 19.3658 91.6224 16.9978C90.6632 15.5138 90.3238 13.8885 90.6037 12.1218C91.009 10.0717 92.0948 8.53341 93.861 7.50753C94.6218 7.10092 95.4261 6.85767 96.2738 6.7775Z" fill="#8E1C6A"/>
<path opacity="0.992" fill-rule="evenodd" clip-rule="evenodd" d="M118.498 6.77751C119.953 6.64831 121.195 7.10726 122.225 8.15491C123.328 7.04115 124.65 6.59569 126.193 6.81883C127.789 7.12269 128.937 8.02709 129.638 9.53231C129.83 10.0092 129.946 10.505 129.986 11.0199C130.004 13.5728 130.004 16.1254 129.986 18.6783C129.835 19.3805 129.41 19.7477 128.713 19.7802C128.027 19.7501 127.602 19.392 127.439 18.7058C127.431 16.2174 127.421 13.7287 127.413 11.2403C127.303 10.467 126.906 9.91137 126.22 9.57363C125.203 9.23314 124.394 9.5133 123.793 10.4138C123.629 10.7034 123.54 11.0155 123.525 11.3505C123.516 13.8207 123.507 16.2907 123.498 18.7609C123.252 19.5466 122.729 19.8815 121.93 19.7664C121.402 19.6091 121.075 19.2554 120.952 18.7058C120.951 16.143 120.933 13.581 120.898 11.0199C120.716 10.2745 120.274 9.77391 119.571 9.51854C118.609 9.27584 117.854 9.57419 117.305 10.4138C117.208 10.5962 117.136 10.7891 117.091 10.9924C117.056 13.5444 117.038 16.097 117.037 18.6507C116.892 19.3689 116.463 19.7546 115.751 19.8077C115.025 19.751 114.596 19.3562 114.464 18.6232C114.446 16.1254 114.446 13.6279 114.464 11.1301C114.649 9.23259 115.582 7.88742 117.265 7.09431C117.667 6.93591 118.078 6.8304 118.498 6.77751Z" fill="#8E1C6A"/>
<path opacity="0.998" fill-rule="evenodd" clip-rule="evenodd" d="M13.6478 8.92622C13.6478 12.3146 13.6478 15.703 13.6478 19.0914C13.4186 19.0972 13.1951 19.0788 12.9775 19.0363C12.9775 15.6755 12.9775 12.3146 12.9775 8.95377C13.2002 8.93091 13.4236 8.92154 13.6478 8.92622Z" fill="#BE2977"/>
<path opacity="0.999" fill-rule="evenodd" clip-rule="evenodd" d="M13.6475 8.92627C13.71 8.92627 13.7726 8.92627 13.8351 8.92627C13.8351 12.3147 13.8351 15.7031 13.8351 19.0915C13.7726 19.0915 13.71 19.0915 13.6475 19.0915C13.6475 15.7031 13.6475 12.3147 13.6475 8.92627Z" fill="#BA2777"/>
<path opacity="0.998" fill-rule="evenodd" clip-rule="evenodd" d="M13.835 8.92627C13.9875 8.9271 14.1394 8.93646 14.2907 8.95382C14.2907 12.3147 14.2907 15.6755 14.2907 19.0364C14.141 19.0637 13.9891 19.0821 13.835 19.0915C13.835 15.7031 13.835 12.3147 13.835 8.92627Z" fill="#B72675"/>
<path opacity="0.998" fill-rule="evenodd" clip-rule="evenodd" d="M12.9768 8.95386C12.9768 12.3147 12.9768 15.6756 12.9768 19.0364C12.8324 19.0287 12.6894 19.0105 12.5479 18.9813C12.5479 15.6665 12.5479 12.3514 12.5479 9.0365C12.6896 9.00317 12.8326 8.97562 12.9768 8.95386Z" fill="#C32A79"/>
<path opacity="0.998" fill-rule="evenodd" clip-rule="evenodd" d="M14.291 8.95386C14.3271 8.96295 14.3631 8.97231 14.3992 8.98141C14.3992 12.3332 14.3992 15.6847 14.3992 19.0364C14.3631 19.0364 14.3271 19.0364 14.291 19.0364C14.291 15.6756 14.291 12.3147 14.291 8.95386Z" fill="#B42674"/>
<path opacity="0.997" fill-rule="evenodd" clip-rule="evenodd" d="M14.3984 8.98132C14.6314 9.00887 14.8548 9.06397 15.0687 9.14661C15.0687 12.3882 15.0687 15.6295 15.0687 18.8711C14.8488 18.9391 14.6254 18.9942 14.3984 19.0363C14.3984 15.6846 14.3984 12.3331 14.3984 8.98132Z" fill="#B12474"/>
<path opacity="0.997" fill-rule="evenodd" clip-rule="evenodd" d="M12.5479 9.0365C12.5479 12.3514 12.5479 15.6665 12.5479 18.9813C12.464 18.9576 12.3835 18.9301 12.3066 18.8987C12.3066 15.6296 12.3066 12.3607 12.3066 9.0916C12.386 9.06901 12.4665 9.05055 12.5479 9.0365Z" fill="#C62C7A"/>
<path opacity="0.997" fill-rule="evenodd" clip-rule="evenodd" d="M12.3073 9.09155C12.3073 12.3607 12.3073 15.6295 12.3073 18.8986C12.0416 18.8444 11.7914 18.7526 11.5566 18.6232C11.5566 15.5378 11.5566 12.4524 11.5566 9.36703C11.8008 9.25904 12.051 9.16703 12.3073 9.09155Z" fill="#CA2D7B"/>
<path opacity="0.997" fill-rule="evenodd" clip-rule="evenodd" d="M15.0684 9.14661C15.3003 9.20611 15.5237 9.28875 15.7386 9.39454C15.7386 12.4615 15.7386 15.5287 15.7386 18.5956C15.526 18.7091 15.3026 18.8011 15.0684 18.8711C15.0684 15.6295 15.0684 12.3882 15.0684 9.14661Z" fill="#AB2272"/>
<path opacity="0.989" fill-rule="evenodd" clip-rule="evenodd" d="M32.6283 9.14666C34.9519 9.14197 37.2752 9.14666 39.5987 9.16043C40.6325 9.3136 41.2625 9.91497 41.4888 10.9648C41.5993 11.899 41.2733 12.6199 40.5103 13.1273C38.8124 14.4587 37.1143 15.7904 35.4165 17.1218C37.1948 17.1309 38.9733 17.1403 40.7515 17.1494C41.5309 17.3593 41.884 17.878 41.8105 18.7058C41.6566 19.3507 41.259 19.7132 40.6175 19.794C38.3299 19.8124 36.042 19.8124 33.7543 19.794C32.8685 19.7099 32.2565 19.2463 31.9179 18.4028C31.6913 17.6995 31.7718 17.0383 32.1592 16.4193C32.2618 16.2769 32.3825 16.1529 32.5211 16.0474C34.3042 14.6491 36.0827 13.2441 37.8561 11.8326C36.1047 11.8235 34.353 11.8141 32.6015 11.805C31.9868 11.7061 31.616 11.3433 31.4889 10.7169C31.427 9.85134 31.8069 9.32792 32.6283 9.14666Z" fill="#FEFFFE"/>
<path opacity="0.99" fill-rule="evenodd" clip-rule="evenodd" d="M47.1323 9.14668C49.4682 9.13649 51.1526 10.2015 52.1858 12.3422C52.4255 12.9329 52.5596 13.548 52.588 14.188C52.6059 15.6665 52.6059 17.1447 52.588 18.6232C52.4539 19.3538 52.025 19.7485 51.3011 19.8078C50.7446 19.8045 50.347 19.5474 50.1081 19.0364C48.7993 19.805 47.4141 19.9932 45.9527 19.6011C44.6573 19.1788 43.6519 18.3755 42.9366 17.1907C42.2554 15.9345 42.0677 14.6031 42.3736 13.1962C42.8267 11.5277 43.8144 10.3202 45.3361 9.57367C45.9157 9.3307 46.5143 9.18828 47.1323 9.14668ZM47.1055 11.8188C48.3829 11.7563 49.2899 12.3164 49.8266 13.4993C50.2435 14.8398 49.8995 15.9188 48.7945 16.7362C47.836 17.2846 46.8889 17.2665 45.9527 16.6811C44.9184 15.8521 44.6012 14.7915 45.0009 13.4993C45.4114 12.5491 46.1127 11.9888 47.1055 11.8188Z" fill="#FEFFFE"/>
<path opacity="0.992" fill-rule="evenodd" clip-rule="evenodd" d="M80.6173 9.14666C81.3663 9.12518 81.8446 9.4833 82.0516 10.221C82.0604 11.6902 82.0696 13.1596 82.0784 14.6287C82.1813 15.7262 82.7218 16.502 83.7004 16.9565C85.1481 17.3976 86.2518 16.9521 87.0113 15.6204C87.1722 15.2623 87.2526 14.886 87.2526 14.491C87.2614 13.0585 87.2706 11.626 87.2794 10.1935C87.5724 9.31526 88.1577 8.99846 89.0354 9.24308C89.4673 9.43867 89.7308 9.77393 89.8263 10.2486C89.8443 11.8097 89.8443 13.3706 89.8263 14.9317C89.7405 16.0714 89.3384 17.0722 88.6199 17.9345C87.3408 19.4061 85.7456 20.0075 83.8344 19.7389C82.8843 19.581 82.0443 19.1863 81.3143 18.5543C80.494 17.8213 79.9353 16.9169 79.6387 15.8408C79.5916 15.6411 79.5556 15.4389 79.5315 15.2348C79.4878 13.5643 79.4787 11.8929 79.5047 10.221C79.6653 9.62903 80.0361 9.27091 80.6173 9.14666Z" fill="#FEFFFE"/>
<path opacity="0.996" fill-rule="evenodd" clip-rule="evenodd" d="M11.5569 9.36707C11.5569 12.4524 11.5569 15.5378 11.5569 18.6232C11.2949 18.5182 11.0536 18.3805 10.833 18.21C10.833 15.4092 10.833 12.6086 10.833 9.80783C11.0601 9.64062 11.3013 9.49351 11.5569 9.36707Z" fill="#D12F7D"/>
<path opacity="0.997" fill-rule="evenodd" clip-rule="evenodd" d="M15.7383 9.39453C15.8731 9.45459 15.9982 9.52786 16.1136 9.61492C16.1136 12.5441 16.1136 15.4735 16.1136 18.4027C15.9961 18.4815 15.871 18.5457 15.7383 18.5956C15.7383 15.5286 15.7383 12.4615 15.7383 9.39453Z" fill="#A62071"/>
<path opacity="0.996" fill-rule="evenodd" clip-rule="evenodd" d="M16.1143 9.61499C16.1674 9.64171 16.221 9.66926 16.2751 9.69763C16.2751 12.5626 16.2751 15.4276 16.2751 18.2926C16.2294 18.3392 16.1758 18.3761 16.1143 18.4028C16.1143 15.4736 16.1143 12.5442 16.1143 9.61499Z" fill="#A42070"/>
<path opacity="0.995" fill-rule="evenodd" clip-rule="evenodd" d="M16.2744 9.69763C16.328 9.73427 16.3817 9.77119 16.4353 9.80782C16.4353 12.5993 16.4353 15.391 16.4353 18.1824C16.3911 18.2328 16.3375 18.2695 16.2744 18.2926C16.2744 15.4276 16.2744 12.5626 16.2744 9.69763Z" fill="#A31F70"/>
<path opacity="0.996" fill-rule="evenodd" clip-rule="evenodd" d="M10.8323 9.80786C10.8323 12.6087 10.8323 15.4092 10.8323 18.21C10.7816 18.1797 10.737 18.1428 10.6982 18.0998C10.6982 15.3635 10.6982 12.6268 10.6982 9.89051C10.7364 9.85139 10.7811 9.82384 10.8323 9.80786Z" fill="#D5317E"/>
<path opacity="0.995" fill-rule="evenodd" clip-rule="evenodd" d="M16.4355 9.80786C16.661 9.97866 16.8755 10.1624 17.079 10.3588C17.079 12.783 17.079 15.2073 17.079 17.6315C16.8887 17.8455 16.6742 18.029 16.4355 18.1825C16.4355 15.391 16.4355 12.5993 16.4355 9.80786Z" fill="#9F1D6E"/>
<path opacity="0.995" fill-rule="evenodd" clip-rule="evenodd" d="M10.6988 9.8905C10.6988 12.6268 10.6988 15.3635 10.6988 18.0998C10.5885 18.029 10.4812 17.951 10.3771 17.8657C10.309 17.8004 10.2465 17.7315 10.1895 17.659C10.1895 15.2164 10.1895 12.774 10.1895 10.3313C10.3433 10.1649 10.5131 10.0181 10.6988 9.8905Z" fill="#D8327F"/>
<path opacity="0.988" fill-rule="evenodd" clip-rule="evenodd" d="M65.9526 10.0558C66.5992 10.0643 67.0416 10.3764 67.2796 10.9924C67.3062 11.101 67.3241 11.2111 67.3333 11.323C67.3595 13.8029 67.3507 16.2822 67.3064 18.761C67.1258 19.41 66.7057 19.7587 66.0464 19.8078C65.3445 19.7568 64.9156 19.3802 64.7596 18.6783C64.7416 16.1805 64.7416 13.683 64.7596 11.1853C64.9067 10.5241 65.3046 10.1478 65.9526 10.0558Z" fill="#FEFFFE"/>
<path opacity="0.993" fill-rule="evenodd" clip-rule="evenodd" d="M10.1888 10.3312C10.1888 12.7739 10.1888 15.2163 10.1888 17.6589C9.92514 17.4157 9.70174 17.1402 9.51855 16.8325C9.51855 14.9408 9.51855 13.0493 9.51855 11.1576C9.70391 10.8505 9.92732 10.575 10.1888 10.3312Z" fill="#DD3480"/>
<path opacity="0.993" fill-rule="evenodd" clip-rule="evenodd" d="M17.0791 10.3588C17.3893 10.6588 17.6483 10.9987 17.8566 11.378C17.8566 13.132 17.8566 14.8857 17.8566 16.6397C17.6485 17.0116 17.3896 17.3422 17.0791 17.6314C17.0791 15.2072 17.0791 12.783 17.0791 10.3588Z" fill="#991B6C"/>
<path opacity="0.985" fill-rule="evenodd" clip-rule="evenodd" d="M9.51842 11.1576C9.51842 13.0493 9.51842 14.9408 9.51842 16.8325C9.21191 16.4121 8.99744 15.9438 8.875 15.4275C8.875 14.4818 8.875 13.5358 8.875 12.5901C9.00339 12.0692 9.21786 11.5917 9.51842 11.1576Z" fill="#E33682"/>
<path opacity="0.983" fill-rule="evenodd" clip-rule="evenodd" d="M17.8564 11.3781C18.1076 11.7756 18.2865 12.2072 18.3926 12.6728C18.3926 13.5543 18.3926 14.4359 18.3926 15.3174C18.287 15.7915 18.1082 16.2323 17.8564 16.6397C17.8564 14.8857 17.8564 13.132 17.8564 11.3781Z" fill="#93196B"/>
<path opacity="0.957" fill-rule="evenodd" clip-rule="evenodd" d="M8.87526 12.5901C8.87526 13.5358 8.87526 14.4818 8.87526 15.4275C8.80172 15.2259 8.75703 15.0146 8.74121 14.7939C8.74121 14.2614 8.74121 13.7286 8.74121 13.1961C8.75907 12.9846 8.80376 12.7826 8.87526 12.5901Z" fill="#E73784"/>
<path opacity="0.958" fill-rule="evenodd" clip-rule="evenodd" d="M18.3926 12.6727C18.429 12.7391 18.4479 12.8124 18.45 12.8931C18.45 13.6278 18.45 14.3622 18.45 15.097C18.456 15.1796 18.4368 15.2529 18.3926 15.3173C18.3926 14.4358 18.3926 13.5543 18.3926 12.6727Z" fill="#8F1969"/>
<path opacity="0.927" fill-rule="evenodd" clip-rule="evenodd" d="M18.4463 12.8932C18.499 13.0601 18.526 13.2345 18.5274 13.4166C18.5274 13.8114 18.5274 14.2064 18.5274 14.6012C18.5231 14.7739 18.496 14.9392 18.4463 15.097C18.4463 14.3623 18.4463 13.6279 18.4463 12.8932Z" fill="#8F1869"/>
<path opacity="0.767" fill-rule="evenodd" clip-rule="evenodd" d="M8.74242 13.1962C8.74242 13.7287 8.74242 14.2614 8.74242 14.794C8.63534 14.2614 8.63534 13.7289 8.74242 13.1962Z" fill="#E73883"/>
<path opacity="0.642" fill-rule="evenodd" clip-rule="evenodd" d="M18.5264 13.4166C18.603 13.8114 18.603 14.2064 18.5264 14.6012C18.5264 14.2064 18.5264 13.8114 18.5264 13.4166Z" fill="#8E1869"/>
</svg>
